<svg xmlns="http://www.w3.org/2000/svg" viewBox="0 0 500 500"><g id="freepik--background-complete--inject-68"><rect y="382.4" width="500" height="0.25" style="fill:#ebebeb"></rect><rect x="416.78" y="398.49" width="33.12" height="0.25" style="fill:#ebebeb"></rect><rect x="322.53" y="401.21" width="8.69" height="0.25" style="fill:#ebebeb"></rect><rect x="396.59" y="389.21" width="19.19" height="0.25" style="fill:#ebebeb"></rect><rect x="52.46" y="390.89" width="43.19" height="0.25" style="fill:#ebebeb"></rect><rect x="104.56" y="390.89" width="6.33" height="0.25" style="fill:#ebebeb"></rect><rect x="131.47" y="395.11" width="93.68" height="0.25" style="fill:#ebebeb"></rect><path d="M237,337.8H43.91a5.71,5.71,0,0,1-5.7-5.71V60.66A5.71,5.71,0,0,1,43.91,55H237a5.71,5.71,0,0,1,5.71,5.71V332.09A5.71,5.71,0,0,1,237,337.8ZM43.91,55.2a5.46,5.46,0,0,0-5.45,5.46V332.09a5.46,5.46,0,0,0,5.45,5.46H237a5.47,5.47,0,0,0,5.46-5.46V60.66A5.47,5.47,0,0,0,237,55.2Z" style="fill:#ebebeb"></path><path d="M453.31,337.8H260.21a5.72,5.72,0,0,1-5.71-5.71V60.66A5.72,5.72,0,0,1,260.21,55h193.1A5.71,5.71,0,0,1,459,60.66V332.09A5.71,5.71,0,0,1,453.31,337.8ZM260.21,55.2a5.47,5.47,0,0,0-5.46,5.46V332.09a5.47,5.47,0,0,0,5.46,5.46h193.1a5.47,5.47,0,0,0,5.46-5.46V60.66a5.47,5.47,0,0,0-5.46-5.46Z" style="fill:#ebebeb"></path><polygon points="73.35 293.93 73.35 307.23 84.73 309.8 415.54 306.53 426.92 297.91 415.54 295.34 73.35 293.93" style="fill:#e0e0e0"></polygon><polygon points="84.73 296.5 84.73 309.8 426.92 309.1 426.92 297.91 84.73 296.5" style="fill:#e6e6e6"></polygon><polygon points="73.35 331.89 73.35 345.19 84.73 347.76 415.54 344.49 426.92 335.87 415.54 333.3 73.35 331.89" style="fill:#e0e0e0"></polygon><polygon points="84.73 334.46 84.73 347.76 426.92 347.06 426.92 335.87 84.73 334.46" style="fill:#e6e6e6"></polygon><polygon points="107.72 278.61 94.42 278.61 91.85 281.2 95.13 356.58 103.74 359.17 106.31 356.58 107.72 278.61" style="fill:#e0e0e0"></polygon><polygon points="105.15 281.2 91.85 281.2 92.56 359.17 103.74 359.17 105.15 281.2" style="fill:#f0f0f0"></polygon><polygon points="135.63 278.61 122.33 278.61 119.76 281.2 123.04 356.58 131.65 359.17 134.22 356.58 135.63 278.61" style="fill:#e0e0e0"></polygon><polygon points="133.06 281.2 119.76 281.2 120.47 359.17 131.65 359.17 133.06 281.2" style="fill:#f0f0f0"></polygon><polygon points="163.54 278.61 150.24 278.61 147.67 281.2 150.94 356.58 159.56 359.17 162.13 356.58 163.54 278.61" style="fill:#e0e0e0"></polygon><polygon points="160.97 281.2 147.67 281.2 148.37 359.17 159.56 359.17 160.97 281.2" style="fill:#f0f0f0"></polygon><polygon points="224.25 278.61 210.95 278.61 208.38 281.2 211.65 356.58 220.26 359.17 222.84 356.58 224.25 278.61" style="fill:#e0e0e0"></polygon><polygon points="221.68 281.2 208.38 281.2 209.08 359.17 220.26 359.17 221.68 281.2" style="fill:#f0f0f0"></polygon><polygon points="252.16 278.61 238.85 278.61 236.28 281.2 239.56 356.58 248.17 359.17 250.74 356.58 252.16 278.61" style="fill:#e0e0e0"></polygon><polygon points="249.59 281.2 236.28 281.2 236.99 359.17 248.17 359.17 249.59 281.2" style="fill:#f0f0f0"></polygon><polygon points="280.06 278.61 266.76 278.61 264.19 281.2 267.47 356.58 276.08 359.17 278.65 356.58 280.06 278.61" style="fill:#e0e0e0"></polygon><polygon points="277.49 281.2 264.19 281.2 264.9 359.17 276.08 359.17 277.49 281.2" style="fill:#f0f0f0"></polygon><polygon points="345.15 278.61 331.86 278.61 329.29 281.2 332.56 356.58 341.17 359.17 343.74 356.58 345.15 278.61" style="fill:#e0e0e0"></polygon><polygon points="342.58 281.2 329.29 281.2 329.99 359.17 341.17 359.17 342.58 281.2" style="fill:#f0f0f0"></polygon><polygon points="373.06 278.61 359.76 278.61 357.19 281.2 360.47 356.58 369.08 359.17 371.65 356.58 373.06 278.61" style="fill:#e0e0e0"></polygon><polygon points="370.49 281.2 357.19 281.2 357.9 359.17 369.08 359.17 370.49 281.2" style="fill:#f0f0f0"></polygon><polygon points="400.97 278.61 387.67 278.61 385.1 281.2 388.38 356.58 396.99 359.17 399.56 356.58 400.97 278.61" style="fill:#e0e0e0"></polygon><polygon points="398.4 281.2 385.1 281.2 385.81 359.17 396.99 359.17 398.4 281.2" style="fill:#f0f0f0"></polygon><polygon points="195.42 267.9 180.58 265.9 176.94 269.31 181.58 368.6 195.78 372.02 199.42 368.6 195.42 267.9" style="fill:#e0e0e0"></polygon><polygon points="191.78 271.31 176.94 269.31 177.94 372.02 195.78 372.02 191.78 271.31" style="fill:#fafafa"></polygon><polygon points="317.01 265.9 298.17 266.9 294.53 270.31 297.17 368.6 311.37 372.02 315.01 368.6 317.01 265.9" style="fill:#e0e0e0"></polygon><polygon points="313.37 269.31 294.53 270.31 293.53 372.02 311.37 372.02 313.37 269.31" style="fill:#fafafa"></polygon><polygon points="434.6 265.9 415.76 265.9 412.12 269.31 416.76 368.6 428.96 372.02 432.6 368.6 434.6 265.9" style="fill:#e0e0e0"></polygon><polygon points="430.96 269.31 412.12 269.31 413.12 372.02 428.96 372.02 430.96 269.31" style="fill:#fafafa"></polygon><polygon points="81.83 265.9 62.99 265.9 59.35 269.31 63.99 368.6 76.19 372.02 79.83 368.6 81.83 265.9" style="fill:#e0e0e0"></polygon><polygon points="78.19 269.31 59.35 269.31 60.35 372.02 76.19 372.02 78.19 269.31" style="fill:#fafafa"></polygon><path d="M97.4,171.25c4.32-1,9.27,2.13,13.09-.13,4.76-2.81,4.41-11.82,9.91-12.42,9.55-1,13.38,13.1,19.19,13.56,5.43.43,8.81-6.88,14.23-7.4,6.76-.65,10.74,8.64,17.48,9.44,3.72.43,7.3-1.81,11-1.64a8.7,8.7,0,0,1,8,8.92H84.44S91.6,172.59,97.4,171.25Z" style="fill:#fafafa"></path><path d="M237.37,175.79c3.18-1.84,6-1.19,9.13-.61s3.42-3.57,7.07-5.35c5.1-2.49,8.2,2.86,9.51,5s4.6,1,7.84,1.57c4.48.81,4.64,5.49,4.64,5.49H233.87S234,177.77,237.37,175.79Z" style="fill:#f5f5f5"></path><path d="M241.64,204.26c-1.76-.41-3.78.87-5.34-.06-1.94-1.15-1.8-4.83-4.05-5.07-3.9-.42-5.46,5.35-7.83,5.54-2.22.17-3.6-2.81-5.81-3-2.76-.27-4.39,3.52-7.14,3.85-1.52.18-3-.74-4.51-.67a3.55,3.55,0,0,0-3.27,3.64h43.25S244,204.8,241.64,204.26Z" style="fill:#f5f5f5"></path><path d="M382.19,177.88c-2.15-.49-4.6,1.06-6.49-.06-2.36-1.39-2.19-5.86-4.91-6.15-4.73-.52-6.63,6.49-9.51,6.71-2.69.22-4.36-3.4-7-3.66-3.35-.33-5.32,4.28-8.67,4.67-1.84.22-3.61-.89-5.46-.81a4.3,4.3,0,0,0-4,4.42H388.6S385.06,178.55,382.19,177.88Z" style="fill:#f5f5f5"></path></g><g id="freepik--Shadow--inject-68"><ellipse id="freepik--path--inject-68" cx="250" cy="416.24" rx="193.89" ry="11.32" style="fill:#f5f5f5"></ellipse></g><g id="freepik--character-3--inject-68"><rect x="308.37" y="191.68" width="141.73" height="224.56" style="fill:none;stroke:#263238;stroke-miterlimit:10"></rect><rect x="308.37" y="191.68" width="141.73" height="224.56" style="fill:none;stroke:#fff;stroke-miterlimit:10;opacity:0.6000000000000001"></rect><path d="M367.7,256.88s-10,13.09,3.88,23.11l3.39-8.08s-1.68-2.63-.71-9.58Z" style="fill:#ebb376"></path><path d="M395.09,237.25c-5.07-4.8-12.54-2.07-30,19.41,0,0,6.89,7.22,11.11,9.41,0,0,15-12.59,17.59-15.53S401.25,243.07,395.09,237.25Z" style="fill:#54D1EB"></path><path d="M395.09,237.25c-5.07-4.8-12.54-2.07-30,19.41,0,0,6.89,7.22,11.11,9.41,0,0,15-12.59,17.59-15.53S401.25,243.07,395.09,237.25Z" style="fill:#fff;opacity:0.1"></path><polygon points="401.36 378.41 406.65 372.36 411.15 376.42 405.8 382.92 401.36 378.41" style="fill:#ebb376"></polygon><path d="M407,382.63l-5.38-5.07a.59.59,0,0,0-.76.07L395,382.37a1.31,1.31,0,0,0-.52,1.53.93.93,0,0,0,.13.15c1.73,1.56,3.11,2.58,5.24,4.59,1.31,1.24,5.09,5.16,6.91,6.87s4.43-.59,3.9-1.52c-2.37-4.16-3.54-7.94-3.34-10.29A1.21,1.21,0,0,0,407,382.63Z" style="fill:#263238"></path><path d="M380.56,308S396,326,427.73,335.4c0,0-14.55,10-19.91,32.52l-3.38,4.75a16.56,16.56,0,0,0,6.74,5.31l3.36-4.55s21.87-19.45,31.67-41.92c-.14-11.15-51.88-43.78-55.26-40.81S380.56,308,380.56,308Z" style="fill:#54D1EB"></path><path d="M380.56,308S396,326,427.73,335.4c0,0-14.55,10-19.91,32.52l-3.38,4.75a16.56,16.56,0,0,0,6.74,5.31l3.36-4.55s21.87-19.45,31.67-41.92c-.14-11.15-51.88-43.78-55.26-40.81S380.56,308,380.56,308Z" style="opacity:0.5"></path><polygon points="317.42 400.16 321.5 392.6 326.51 395.84 323.28 402.09 317.42 400.16" style="fill:#ebb376"></polygon><path d="M323.7,401.63l-6.09-2.72a.58.58,0,0,0-.69.32l-4.6,6.09a1.28,1.28,0,0,0,0,1.61.57.57,0,0,0,.16.11c2.16.9,3.79,1.41,6.47,2.6,1.64.74,6.51,3.2,8.79,4.22s4-2,3.18-2.73c-3.61-3.14-6-6.33-6.54-8.61A1.25,1.25,0,0,0,323.7,401.63Z" style="fill:#263238"></path><path d="M370.39,347.79c-5,10.44-40.82,45.43-40.82,45.43l-3.41,4.33a13.16,13.16,0,0,1-6.77-4.14l2.84-4.63c15.74-36.87,33.12-44.08,33.12-44.08,2.06-37.25,6.37-40.39,11-55.3,9.15-2.44,24.6,1.3,24.6,1.3S386.38,320.73,370.39,347.79Z" style="fill:#54D1EB"></path><path d="M370.39,347.79c-5,10.44-40.82,45.43-40.82,45.43l-3.41,4.33a13.16,13.16,0,0,1-6.77-4.14l2.84-4.63c15.74-36.87,33.12-44.08,33.12-44.08,2.06-37.25,6.37-40.39,11-55.3,9.15-2.44,24.6,1.3,24.6,1.3S386.38,320.73,370.39,347.79Z" style="opacity:0.30000000000000004"></path><path d="M395,290.27s-9.27,3.67-28.6-.87c0,0,14.78-46.61,17.88-53.25,2.65-5.68,23.5-5.69,29.27,2.66C419.81,248,403,284.56,395,290.27Z" style="fill:#54D1EB"></path><path d="M395,290.27s-9.27,3.67-28.6-.87c0,0,14.78-46.61,17.88-53.25,2.65-5.68,23.5-5.69,29.27,2.66C419.81,248,403,284.56,395,290.27Z" style="fill:#fff;opacity:0.6000000000000001"></path><path d="M424.82,285.07l5,.87s5.26-1.89,6.54-1.79,7,3.57,7,3.57,1.1,1.8.94,2.27-8.26,4.78-9.77,4.71-4.81-3.14-5.31-3.53-8.65-3.22-8.65-3.22Z" style="fill:#ebb376"></path><path d="M391.7,262.55s10.12,28,37.23,28l1.69-4.9S414,286,401.27,260Z" style="fill:#ebb376"></path><path d="M385.63,233.14c-6.39,2.82-6.76,10.77,6.3,35.15,0,0,9.33-3.56,13-6.61,0,0-5.82-18.66-7.51-22.23S393.39,229.72,385.63,233.14Z" style="fill:#54D1EB"></path><path d="M385.63,233.14c-6.39,2.82-6.76,10.77,6.3,35.15,0,0,9.33-3.56,13-6.61,0,0-5.82-18.66-7.51-22.23S393.39,229.72,385.63,233.14Z" style="fill:#fff;opacity:0.4"></path><path d="M402.75,217.24c-.35,4.6-1.7,12.88-5.56,15a14.54,14.54,0,0,0,8.76,6.94c5.56,1.67,4.85-3,4.85-3-4.14-2.8-3.47-6.34-1.68-9.49Z" style="fill:#ebb376"></path><path d="M405.34,221.07l3.77,5.57a15.29,15.29,0,0,0-1,2.34c-1.78-.79-3.82-3.57-3.48-5.57A6.9,6.9,0,0,1,405.34,221.07Z" style="opacity:0.2;isolation:isolate"></path><path d="M411,207c-2.17,2.13-.52,4.76,5.89,8.18,1.73-3.37,1-9.15-1-10.26S412.84,205.17,411,207Z" style="fill:#263238"></path><path d="M401.18,213.58c1,4.4,1.56,7.5,3.19,9.87a9.8,9.8,0,0,0,2.26,2.29c5.38,3.9,12.39-.12,12.83-6.39,0-.2,0-.41,0-.61.2-5.66-2.18-14-8.28-15.31a8.39,8.39,0,0,0-10,10.15Z" style="fill:#ebb376"></path><path d="M410.49,213.73c.08.49.41.85.73.79s.52-.49.43-1-.4-.85-.72-.8S410.44,213.24,410.49,213.73Z" style="fill:#263238"></path><path d="M416.09,212.8c.08.5.41.85.73.8s.52-.5.44-1-.41-.85-.73-.8S416,212.31,416.09,212.8Z" style="fill:#263238"></path><path d="M414.3,213.34a17.9,17.9,0,0,0,3.06,3.82,2.88,2.88,0,0,1-2.28.83Z" style="fill:#d58745"></path><path d="M408.67,212.22a.31.31,0,0,1-.19,0,.3.3,0,0,1-.13-.4,2.88,2.88,0,0,1,2.15-1.58.28.28,0,0,1,.32.24v0a.3.3,0,0,1-.26.32h0a2.34,2.34,0,0,0-1.69,1.27A.32.32,0,0,1,408.67,212.22Z" style="fill:#263238"></path><path d="M418.33,210.49a.31.31,0,0,1-.3-.12,2.33,2.33,0,0,0-1.84-1,.3.3,0,0,1-.31-.28.31.31,0,0,1,.28-.31,3,3,0,0,1,2.35,1.29.3.3,0,0,1-.06.41h0Z" style="fill:#263238"></path><path d="M404.46,204.1c3,.5,1.39,7.32-1.9,13.79-3.34-1.76-6.12-6.89-5.05-9S401.85,203.67,404.46,204.1Z" style="fill:#263238"></path><path d="M399.1,218.9a5.85,5.85,0,0,0,3.32,3c1.94.67,3-1,2.59-2.93-.39-1.7-1.88-4.1-3.86-4A2.61,2.61,0,0,0,399.1,218.9Z" style="fill:#ebb376"></path><path d="M410.73,219.83a4.32,4.32,0,0,0,4.32,1.15" style="fill:none;stroke:#263238;stroke-linecap:round;stroke-linejoin:round;stroke-width:0.526291px"></path><path d="M417.18,202.1c-.58,1.12-1.38,2.68-5.06,3.36s-7.14-.79-8.26.28-2.2,4.42-2.2,4.42l-4.11-.77a5.46,5.46,0,0,1,1.08-5.81c5.16-5.81,15.59-1.69,17.31-8.83C415.94,194.75,418.63,199.24,417.18,202.1Z" style="fill:#263238"></path><path d="M409.68,199.47s3.46-1.67,3.43-3.91a2.67,2.67,0,0,1,.05,3.38C411.78,200.6,409.68,199.47,409.68,199.47Z" style="fill:#263238"></path><path d="M414.42,204.79c1.16-.53,6.83-5,3.32-9.51" style="fill:none;stroke:#263238;stroke-miterlimit:10;stroke-width:0.25px"></path><rect x="446.1" y="412.24" width="8" height="8" style="fill:#54D1EB"></rect><rect x="304.37" y="412.24" width="8" height="8" style="fill:#54D1EB"></rect><rect x="375.24" y="412.24" width="8" height="8" style="fill:#54D1EB"></rect><rect x="446.1" y="187.68" width="8" height="8" style="fill:#54D1EB"></rect><rect x="304.37" y="187.68" width="8" height="8" style="fill:#54D1EB"></rect><rect x="446.1" y="299.96" width="8" height="8" style="fill:#54D1EB"></rect><rect x="304.37" y="299.96" width="8" height="8" style="fill:#54D1EB"></rect><rect x="375.24" y="187.68" width="8" height="8" style="fill:#54D1EB"></rect><g style="opacity:0.2"><rect x="446.1" y="412.24" width="8" height="8" style="fill:#fff"></rect><rect x="304.37" y="412.24" width="8" height="8" style="fill:#fff"></rect><rect x="375.24" y="412.24" width="8" height="8" style="fill:#fff"></rect><rect x="446.1" y="187.68" width="8" height="8" style="fill:#fff"></rect><rect x="304.37" y="187.68" width="8" height="8" style="fill:#fff"></rect><rect x="446.1" y="299.96" width="8" height="8" style="fill:#fff"></rect><rect x="304.37" y="299.96" width="8" height="8" style="fill:#fff"></rect><rect x="375.24" y="187.68" width="8" height="8" style="fill:#fff"></rect></g></g><g id="freepik--character-2--inject-68"><path d="M299,309.17s-4.14-4.47-5.23-4.88-6.14-.08-6.14-.08c-16.84-9.26-13.69-21-12.19-24.58l2.09.26,2.21-13.22c5.54-10.55,9.31-21.58,6.13-26.18a16.24,16.24,0,0,0-6.36-4.82v0c-3.54-2-3.64-4.55-2.67-7.1.11-.28.23-.55.35-.83s.18-.38.28-.56l0-.07a8.51,8.51,0,0,0,10.15-4c.1-.17.19-.36.28-.54a22,22,0,0,0,2.2-8.15.29.29,0,0,0,.19.17h.13a.29.29,0,0,0,.23-.34,3,3,0,0,0-.37-1c.67-1.94.78-3.83.06-4.77a3.15,3.15,0,0,0-.76-.75,4.92,4.92,0,0,0,2.34-.68c2.33-.93,5-2.91,4.18-6.56l-1.43,1.48a14.65,14.65,0,0,0,0-2.71,5.21,5.21,0,0,1-3.48,2.07,2.88,2.88,0,0,0,.57-2.52c-.9,2-4.64,2.12-4.74,2.12-3.68-.89-7.83-2.6-11.77-.87a5.48,5.48,0,0,0-3.38,4.53c-1.15,1.13-1.31,4.11-.57,6.81a2.76,2.76,0,0,0-2,2.78,5.86,5.86,0,0,0,1.77,4.1l.25.22c-.5,4.71-1.94,11.57-5.42,13.43l.05.1c-4.36-.48-8.38-.24-10.92.9h0s-7.91-.45-26.51,20c0,0,.22.49.62,1.25-4.89,5.62-17.7,22.3-17.34,42.31-.29.55-2.77,4.22-2.61,5.68s5.56,8.65,6,8.74,2.05-1.26,2.05-1.26,2.49-6.1,2.39-7.35-2.72-6.06-2.72-6.06v-.29c.07-2.12,1.17-16.12,17.82-34a9.23,9.23,0,0,0,1.3,1s4.68-2.75,9.54-5.77C240.52,272,234.46,289,234.46,289c-3.27,10.52,3.95,20.76,15.87,34.29a171.13,171.13,0,0,0,8.84,16.81A79,79,0,0,0,221,353.6l-5.7,1.21a12.78,12.78,0,0,0-.09,1.48l-5.3.58,0-.4a.61.61,0,0,0-.61-.46l-7.5-.45a1.3,1.3,0,0,0-1.41.78.67.67,0,0,0,0,.2c.22,2.32.54,4,.76,6.92.13,1.8.25,7.25.43,9.74s3.66,2.56,3.91,1.52c1.07-4.67,2.76-8.24,4.5-9.84a1.21,1.21,0,0,0,.46-1l0-.71,5.89-.83c.12.32.26.65.41,1l5.55-1.08s19.34.62,35.77-7.11c-5.93,9.56-12.75,23.31-13.9,37.46l-1.9,5.08s.37.3,1,.71l-1.74,6.24h-.4c-.24,0-.45.24-.5.57l-1.72,7.45a1.29,1.29,0,0,0,.68,1.46.58.58,0,0,0,.19,0c2.33-.06,4-.26,7-.26,1.81,0,7.25.27,9.75.27s2.81-3.47,1.79-3.79c-4.57-1.4-8-3.35-9.48-5.2a1.27,1.27,0,0,0-1-.53l1.08-4.2a7,7,0,0,0,.8,0l2.53-4.9s28.54-41.14,31.48-52.33c1.59-6.07-5.78-21.11-12.86-33.61-2.6-10.54-6-19.25-7.93-19.29l-1.12,0c.87-.23,1.31-.4,1.31-.4a13.59,13.59,0,0,0,1.43-1.2c.39,11.6,15.4,17.53,19.75,19a8.5,8.5,0,0,1,1.56.95c.34.46,2.45,4,3.74,4.41s9.42-1.28,9.68-1.65S299,309.17,299,309.17Z" style="fill:#fff"></path><g style="opacity:0.6000000000000001"><path d="M283.51,302.21l4.09,2s5-.32,6.14.08,5.23,4.88,5.23,4.88.51,1.84.25,2.21-8.39,2.08-9.68,1.65-3.4-3.95-3.74-4.41-7.53-4-7.53-4Z" style="fill:#ebb376"></path><path d="M217,291.26l-.09,4.92s2.62,4.81,2.72,6.06-2.39,7.35-2.39,7.35-1.57,1.34-2.05,1.26-5.88-7.27-6-8.74,2.32-5.13,2.61-5.68,1.81-8.86,1.81-8.86Z" style="fill:#ebb376"></path><path d="M231,252.08s-19.64,19.64-19.2,44.35l5.15-.25s-.3-15.8,19.58-36.12Z" style="fill:#ebb376"></path><path d="M275.94,278.51s-8.51,14.61,11.66,25.7L285.42,308s-25.92-7.35-20.11-24.81c.37-1.09,7.63-7.26,7.63-7.26Z" style="fill:#ebb376"></path><polygon points="209.17 356.95 217.17 356.08 217.74 362.11 209.39 363.28 209.17 356.95" style="fill:#ebb376"></polygon><polygon points="268.5 278.75 277.5 279.89 281.1 258.29 268.5 278.75" style="fill:#54D1EB"></polygon><polygon points="268.5 278.75 277.5 279.89 281.1 258.29 268.5 278.75" style="fill:#fff;opacity:0.1"></polygon><path d="M210.45,363.85l-.53-7.38a.61.61,0,0,0-.61-.46l-7.5-.45a1.3,1.3,0,0,0-1.41.78.67.67,0,0,0,0,.2c.22,2.32.54,4,.76,6.92.13,1.8.25,7.25.43,9.74s3.66,2.56,3.91,1.52c1.07-4.67,2.76-8.24,4.5-9.84A1.21,1.21,0,0,0,210.45,363.85Z" style="fill:#263238"></path><polygon points="241.32 405.15 243.62 396.88 249.23 398.93 247.47 405.74 241.32 405.15" style="fill:#ebb376"></polygon><path d="M239.55,289.25s2.62,22.4,19.62,50.85A79,79,0,0,0,221,353.6l-5.7,1.21a16.55,16.55,0,0,0,1.37,8.47l5.55-1.08s33.55,1.08,49.81-17.25c7.44-8.31-4.69-54.56-9.19-54.66S239.55,289.25,239.55,289.25Z" style="fill:#54D1EB"></path><path d="M239.55,289.25s2.62,22.4,19.62,50.85A79,79,0,0,0,221,353.6l-5.7,1.21a16.55,16.55,0,0,0,1.37,8.47l5.55-1.08s33.55,1.08,49.81-17.25c7.44-8.31-4.69-54.56-9.19-54.66S239.55,289.25,239.55,289.25Z" style="opacity:0.5"></path><path d="M234.46,289c-4.63,14.9,11.76,29.21,32.77,53.15,0,0-21,24.56-23.11,50.4l-1.9,5.08a13.2,13.2,0,0,0,7.43,2.79l2.53-4.9s28.54-41.14,31.48-52.33-24.6-52.9-24.6-52.9S243.6,286.55,234.46,289Z" style="fill:#54D1EB"></path><path d="M234.46,289c-4.63,14.9,11.76,29.21,32.77,53.15,0,0-21,24.56-23.11,50.4l-1.9,5.08a13.2,13.2,0,0,0,7.43,2.79l2.53-4.9s28.54-41.14,31.48-52.33-24.6-52.9-24.6-52.9S243.6,286.55,234.46,289Z" style="opacity:0.30000000000000004"></path><path d="M263.06,289.86s-9.28,3.68-28.6-.86c0,0,16.47-46.07,17.87-53.26,1.48-7.52,27.74-3.6,33.51,4.75C292.15,249.63,271.06,284.16,263.06,289.86Z" style="fill:#54D1EB"></path><path d="M263.06,289.86s-9.28,3.68-28.6-.86c0,0,16.47-46.07,17.87-53.26,1.48-7.52,27.74-3.6,33.51,4.75C292.15,249.63,271.06,284.16,263.06,289.86Z" style="fill:#fff;opacity:0.6000000000000001"></path><path d="M255,232.86s-7.91-.45-26.51,20c0,0,3.46,7.57,7.55,10,0,0,17.12-10.05,19.91-12.84S263.74,236.72,255,232.86Z" style="fill:#54D1EB"></path><path d="M255,232.86s-7.91-.45-26.51,20c0,0,3.46,7.57,7.55,10,0,0,17.12-10.05,19.91-12.84S263.74,236.72,255,232.86Z" style="fill:#fff;opacity:0.4"></path><path d="M247.75,404.58h-6.67c-.24,0-.45.24-.5.57l-1.72,7.45a1.29,1.29,0,0,0,.68,1.46.58.58,0,0,0,.19,0c2.33-.06,4-.26,7-.26,1.81,0,7.25.27,9.75.27s2.81-3.47,1.79-3.79c-4.57-1.4-8-3.35-9.48-5.2A1.24,1.24,0,0,0,247.75,404.58Z" style="fill:#263238"></path><path d="M271.46,217c-.35,4.6-1.7,12.83-5.56,14.9a14.52,14.52,0,0,0,8.76,7c5.56,1.67,4.81-3.25,4.81-3.25-4.55-2.51-3.42-6.09-1.64-9.24Z" style="fill:#ebb376"></path><path d="M274.06,220.8l3.76,5.57a15.06,15.06,0,0,0-1.08,2.3c-1.79-.78-3.77-3.53-3.43-5.53A6.49,6.49,0,0,1,274.06,220.8Z" style="opacity:0.2;isolation:isolate"></path><path d="M285,208.27c-2.85,1-2.45,4.11,2,9.89,3-2.33,4.77-7.87,3.35-9.74S287.52,207.37,285,208.27Z" style="fill:#263238"></path><path d="M273.41,210.15c-.92,4.43-1.71,7.48-1.22,10.31a9.79,9.79,0,0,0,1.1,3c3.26,5.79,11.31,5.06,14.32-.46.1-.17.19-.36.28-.54,2.54-5.06,3.84-13.58-1.14-17.37a8.38,8.38,0,0,0-13.34,5Z" style="fill:#ebb376"></path><path d="M281.81,214.17c-.13.49,0,1,.33,1s.67-.23.81-.71,0-.94-.33-1S282,213.71,281.81,214.17Z" style="fill:#263238"></path><path d="M287.28,215.67c-.13.48,0,.94.34,1s.68-.23.81-.72,0-.95-.34-1S287.41,215.19,287.28,215.67Z" style="fill:#263238"></path><path d="M285.44,215.41a17.69,17.69,0,0,0,1.18,4.75,2.87,2.87,0,0,1-2.42-.2Z" style="fill:#d58745"></path><path d="M280.78,212a.32.32,0,0,1-.17-.09.29.29,0,0,1,.05-.41,2.88,2.88,0,0,1,2.62-.54.27.27,0,0,1,.19.35v0a.29.29,0,0,1-.37.18h0A2.32,2.32,0,0,0,281,212,.32.32,0,0,1,280.78,212Z" style="fill:#263238"></path><path d="M290.28,214.5a.29.29,0,0,1-.21-.23,2.33,2.33,0,0,0-1.25-1.71.31.31,0,0,1-.16-.39A.29.29,0,0,1,289,212a3,3,0,0,1,1.6,2.15.29.29,0,0,1-.23.34h-.13Z" style="fill:#263238"></path><path d="M280.35,202.91c2.51,1.7-1.8,7.23-7.48,11.74-2.31-3-2.69-8.82-.85-10.27S278.16,201.43,280.35,202.91Z" style="fill:#263238"></path><path d="M269.3,214.12a5.86,5.86,0,0,0,1.77,4.1c1.48,1.42,3.18.32,3.57-1.58.36-1.71,0-4.51-1.86-5.2A2.61,2.61,0,0,0,269.3,214.12Z" style="fill:#ebb376"></path><path d="M279.48,219.82a4.31,4.31,0,0,0,3.45,2.85" style="fill:none;stroke:#263238;stroke-linecap:round;stroke-linejoin:round;stroke-width:0.526291px"></path><path d="M292.74,206.39c-1,.79-2.37,1.87-6,1s-6.16-3.7-7.62-3.19-3.85,3.1-3.85,3.1l-3.41-2.42a5.47,5.47,0,0,1,3.4-4.83c7.12-3.12,14.88,5,19.42-.8C294.68,199.2,295.25,204.41,292.74,206.39Z" style="fill:#263238"></path><path d="M287,200.87s3.84-.07,4.75-2.12a2.69,2.69,0,0,1-1.36,3.1C288.45,202.78,287,200.87,287,200.87Z" style="fill:#263238"></path><path d="M289.11,207.69c1.28,0,8.29-1.68,7-7.26" style="fill:none;stroke:#263238;stroke-miterlimit:10;stroke-width:0.25px"></path></g></g><g id="freepik--character-1--inject-68"><path d="M213,255.78c-.25-.38-2.14-.63-2.14-.63s-5.72,2.09-6.52,2.93-2.46,5.63-2.46,5.63h0L200,265.39c-8.53,6.92-15.5,5.37-20.46,2.22l.49-1.37a31.19,31.19,0,0,1-9.95-16.81v0a5.49,5.49,0,0,0-.86-2.22c-1.59-2.3-4.94-4.44-9-6.18a1.33,1.33,0,0,0,0-.17c-3.55-1.95-3.64-4.55-2.67-7.1.11-.28.22-.55.35-.82s.18-.38.27-.57l.18-.33a8.46,8.46,0,0,0,9.7-5.52,5.58,5.58,0,0,0,.18-.58,22.09,22.09,0,0,0,.88-8.4.31.31,0,0,0,.21.14.25.25,0,0,0,.12,0h0a.29.29,0,0,0,.17-.37,2.79,2.79,0,0,0-.52-.9c.35-2,.16-3.9-.71-4.72a3.15,3.15,0,0,0-.85-.61,4.67,4.67,0,0,0,2.19-1.06c2.15-1.29,4.5-3.67,3.07-7.14l-1.17,1.69a15,15,0,0,0-.41-2.68,5.19,5.19,0,0,1-3.11,2.6,2.87,2.87,0,0,0,.16-2.57c-.56,2.14-4.24,2.83-4.34,2.85-3.78-.29-8.14-1.32-11.76,1a5.46,5.46,0,0,0-2.61,5c-1,1.3-.64,4.27.53,6.82a2.73,2.73,0,0,0-1.54,3.06,5.83,5.83,0,0,0,2.4,3.77,2.45,2.45,0,0,0,1,.41c-.61,4.6-2.08,10.56-5.28,12.27l0,.12c-4.29-.64-8.19-.64-10.72.22l-.22-.18s-7.55-2.38-30.62,12.88c0,0,.1.52.3,1.36-6.12,4.25-22.64,17.26-27.21,36.75-.42.46-3.73,3.41-3.93,4.87s3.26,9.74,3.71,10,2.3-.71,2.3-.71,3.91-5.31,4.12-6.55-1.15-6.54-1.15-6.54l.07-.28c.59-2,5.09-15.33,25.64-28.56a9.88,9.88,0,0,0,1,1.25s11.5-3.34,18.22-5.77c-4.81,14.39-11.57,33.4-12.82,36.91-1.79,2.79-2.41,7.69-.8,15.86-1.15,10.85-3.1,23.66-9.11,33.68,0,0-12.33-8.31-35.49-9.13l-5.32-2.38a13.25,13.25,0,0,0-.94,1.15l-4.63-2.65.21-.33a.6.6,0,0,0-.22-.74l-5.79-4.77a1.29,1.29,0,0,0-1.6-.2.64.64,0,0,0-.13.15c-1.19,2-1.91,3.56-3.46,6-1,1.54-4.06,6-5.38,8.13s1.45,4.23,2.26,3.53c3.61-3.14,7.09-5,9.43-5.3a1.26,1.26,0,0,0,1-.57l.38-.6,5.25,2.8q-.13.5-.24,1l5.12,2.4s26.49,20.62,50.43,15.37c4.64-1,10.66-12,15.76-24.47A214.79,214.79,0,0,0,156,348.91s-2.09,18.7,22.57,50.3l2.69,4.72a11.55,11.55,0,0,0,1.48-.41l2.81,4.37-.34.26a.61.61,0,0,0-.06.76l3.12,7a1.27,1.27,0,0,0,1.42.76.56.56,0,0,0,.17-.09c1.83-1.45,3.06-2.63,5.4-4.4,1.44-1.08,5.95-4.15,7.94-5.65s.16-4.47-.84-4.11c-4.5,1.64-8.42,2.16-10.71,1.56a1.24,1.24,0,0,0-1.11.18l-.13.1-2.58-3.86.33-.36L186,394.93s-13.32-48.27-20-57.69a287.54,287.54,0,0,0-24.34-35.15c.74-3.49,1.06-6.12.81-7.41a12,12,0,0,0,1.29-.39c3.47-4.59,12.86-15.77,19.45-26.37C167.27,275.08,175,280.4,175,280.4l.68-1.92c15.16,7,26.2-7.37,28.45-10.63a5.94,5.94,0,0,1,1.11-.77c.56-.14,4.61-.72,5.51-1.74S213.25,256.16,213,255.78Z" style="fill:#fff"></path><g style="opacity:0.30000000000000004"><polygon points="58.41 329 65.39 333 62.3 338.2 54.86 334.24 58.41 329" style="fill:#ebb376"></polygon><path d="M55.38,335.32l3.91-6.27a.6.6,0,0,0-.22-.74l-5.79-4.77a1.29,1.29,0,0,0-1.6-.2.64.64,0,0,0-.13.15c-1.19,2-1.91,3.56-3.46,6-1,1.54-4.06,6-5.38,8.13s1.45,4.23,2.26,3.53c3.61-3.14,7.09-5,9.43-5.3A1.26,1.26,0,0,0,55.38,335.32Z" style="fill:#263238"></path><path d="M116,294.88c-1.66,11.59-1.66,32.63-10.58,47.51,0,0-12.33-8.31-35.49-9.13l-5.32-2.38a16.45,16.45,0,0,0-3.88,7.66l5.12,2.4s26.49,20.62,50.43,15.37c10.9-2.34,29.36-59.68,25.78-62.41S122.55,292.54,116,294.88Z" style="fill:#54D1EB"></path><path d="M116,294.88c-1.66,11.59-1.66,32.63-10.58,47.51,0,0-12.33-8.31-35.49-9.13l-5.32-2.38a16.45,16.45,0,0,0-3.88,7.66l5.12,2.4s26.49,20.62,50.43,15.37c10.9-2.34,29.36-59.68,25.78-62.41S122.55,292.54,116,294.88Z" style="opacity:0.5"></path><polygon points="186.23 408.92 181.59 401.69 186.85 398.88 190.76 404.72 186.23 408.92" style="fill:#ebb376"></polygon><path d="M190.56,404.13l-5.33,4a.61.61,0,0,0-.06.76l3.12,7a1.27,1.27,0,0,0,1.42.76.56.56,0,0,0,.17-.09c1.83-1.45,3.06-2.63,5.4-4.4,1.44-1.08,5.95-4.15,7.94-5.65s.16-4.47-.84-4.11c-4.5,1.64-8.42,2.16-10.71,1.56A1.24,1.24,0,0,0,190.56,404.13Z" style="fill:#263238"></path><path d="M166,337.24c6.72,9.42,20,57.69,20,57.69l2.14,5.08a13.22,13.22,0,0,1-6.9,3.92l-2.69-4.72c-24.66-31.6-22.57-50.3-22.57-50.3-31.6-19.82-39.8-32.41-41.24-39.18-6.91-32.43,19.77-15.89,19.77-15.89S150,310.15,166,337.24Z" style="fill:#54D1EB"></path><path d="M166,337.24c6.72,9.42,20,57.69,20,57.69l2.14,5.08a13.22,13.22,0,0,1-6.9,3.92l-2.69-4.72c-24.66-31.6-22.57-50.3-22.57-50.3-31.6-19.82-39.8-32.41-41.24-39.18-6.91-32.43,19.77-15.89,19.77-15.89S150,310.15,166,337.24Z" style="opacity:0.30000000000000004"></path><path d="M198.46,266.71l3.43-3s1.66-4.78,2.46-5.63,6.52-2.93,6.52-2.93,1.89.25,2.14.63-1.33,8.54-2.24,9.56-5,1.6-5.51,1.74-6.63,5.38-6.63,5.38Z" style="fill:#ebb376"></path><path d="M201.89,263.71c-10.6,10-19,6.72-24.31,2.53-.84,3.12-3.07,8.23-3.49,11.43,17.89,9.9,30.49-10.46,30.49-10.46Z" style="fill:#ebb376"></path><path d="M170.05,249.43A31.19,31.19,0,0,0,180,266.24l-5,14.16s-10-6.87-13.24-15.49Z" style="fill:#54D1EB"></path><path d="M170.05,249.43A31.19,31.19,0,0,0,180,266.24l-5,14.16s-10-6.87-13.24-15.49Z" style="fill:#fff;opacity:0.1"></path><path d="M143.76,294.29s-9.27,3.68-28.6-.86c0,0,16.47-46.07,17.88-53.26,1.47-7.53,30.37-1.29,36.14,7.06C175.5,256.37,150,286,143.76,294.29Z" style="fill:#54D1EB"></path><path d="M143.76,294.29s-9.27,3.68-28.6-.86c0,0,16.47-46.07,17.88-53.26,1.47-7.53,30.37-1.29,36.14,7.06C175.5,256.37,150,286,143.76,294.29Z" style="fill:#fff;opacity:0.6000000000000001"></path><path d="M84.54,284.55l-1.3,4.75s1.36,5.31,1.15,6.54-4.12,6.55-4.12,6.55-1.85.91-2.3.71-3.91-8.5-3.71-10,3.51-4.41,3.93-4.87,3.93-8.14,3.93-8.14Z" style="fill:#ebb376"></path><path d="M107.7,250s-23.86,14.2-29.51,38.27l5,1s3.6-15.39,27.86-30.19Z" style="fill:#ebb376"></path><path d="M135.72,237.29s-7.55-2.38-30.62,12.88c0,0,1.5,8.19,4.87,11.54,0,0,19.06-5.53,22.45-7.55S143.22,243.17,135.72,237.29Z" style="fill:#54D1EB"></path><path d="M135.72,237.29s-7.55-2.38-30.62,12.88c0,0,1.5,8.19,4.87,11.54,0,0,19.06-5.53,22.45-7.55S143.22,243.17,135.72,237.29Z" style="fill:#fff;opacity:0.4"></path><path d="M152.17,222.23c-.35,4.6-1.7,12.83-5.56,14.9a14.52,14.52,0,0,0,8.76,7c5.56,1.67,4.81-3.25,4.81-3.25-4.55-2.5-3.43-6.08-1.64-9.24Z" style="fill:#ebb376"></path><path d="M154.76,226.07l3.77,5.57a14.07,14.07,0,0,0-1.08,2.29c-1.79-.78-3.78-3.53-3.44-5.53A6.78,6.78,0,0,1,154.76,226.07Z" style="opacity:0.2;isolation:isolate"></path><path d="M163.1,212.39c-2.65,1.48-1.76,4.46,3.51,9.46,2.56-2.79,3.45-8.54,1.74-10.16S165.41,211.11,163.1,212.39Z" style="fill:#263238"></path><path d="M151.93,216.11c-.2,4.52-.5,7.65.45,10.36a9.28,9.28,0,0,0,1.57,2.81c4.14,5.2,12,3.19,14.06-2.74a5.58,5.58,0,0,0,.18-.58c1.7-5.4,1.62-14-3.9-17a8.38,8.38,0,0,0-12.36,7.11Z" style="fill:#ebb376"></path><path d="M160.86,218.74c-.05.49.18.92.5,1s.62-.34.68-.84-.17-.92-.49-1S161,218.25,160.86,218.74Z" style="fill:#263238"></path><path d="M166.51,219.34c0,.49.17.92.49.95s.64-.33.69-.83-.17-.93-.5-1S166.56,218.84,166.51,219.34Z" style="fill:#263238"></path><path d="M164.64,219.38a17.87,17.87,0,0,0,1.93,4.49,2.87,2.87,0,0,1-2.42.2Z" style="fill:#d58745"></path><path d="M159.51,216.79a.23.23,0,0,1-.18-.06.29.29,0,0,1,0-.41,2.89,2.89,0,0,1,2.5-1,.28.28,0,0,1,.24.32v0a.3.3,0,0,1-.34.24h0a2.35,2.35,0,0,0-2,.78A.32.32,0,0,1,159.51,216.79Z" style="fill:#263238"></path><path d="M169.28,217.7a.31.31,0,0,1-.25-.19,2.3,2.3,0,0,0-1.5-1.49.3.3,0,0,1-.22-.36.3.3,0,0,1,.35-.22,2.94,2.94,0,0,1,1.92,1.87.29.29,0,0,1-.17.37h0A.25.25,0,0,1,169.28,217.7Z" style="fill:#263238"></path><path d="M157.62,207.85c2.75,1.27-.62,7.42-5.51,12.78-2.75-2.58-4.06-8.27-2.47-10S155.22,206.74,157.62,207.85Z" style="fill:#263238"></path><path d="M148.51,220.68a5.83,5.83,0,0,0,2.4,3.77c1.69,1.16,3.19-.19,3.28-2.13.07-1.75-.72-4.45-2.68-4.84A2.61,2.61,0,0,0,148.51,220.68Z" style="fill:#ebb376"></path><path d="M159.47,224.68a4.3,4.3,0,0,0,3.86,2.26" style="fill:none;stroke:#263238;stroke-linecap:round;stroke-linejoin:round;stroke-width:0.526291px"></path><path d="M170.41,209.3c-.86.94-2,2.23-5.77,1.9s-6.67-2.66-8-1.93-3.3,3.67-3.3,3.67l-3.75-1.83a5.46,5.46,0,0,1,2.58-5.31c6.53-4.23,15.48,2.52,19.05-3.91C171.18,201.89,172.57,206.94,170.41,209.3Z" style="fill:#263238"></path><path d="M163.88,204.77s3.78-.68,4.35-2.85a2.67,2.67,0,0,1-.85,3.27C165.6,206.43,163.88,204.77,163.88,204.77Z" style="fill:#263238"></path><path d="M167,211.16c1.25-.2,7.91-3,5.72-8.28" style="fill:none;stroke:#263238;stroke-miterlimit:10;stroke-width:0.25px"></path></g></g><g id="freepik--animation-timeline--inject-68"><rect x="72.05" y="92.4" width="355.9" height="14.4" style="fill:#54D1EB"></rect><rect x="72.05" y="121.2" width="355.9" height="14.4" style="fill:#54D1EB"></rect><g style="opacity:0.85"><rect x="72.05" y="92.4" width="355.9" height="14.4" style="fill:#fff"></rect><rect x="72.05" y="121.2" width="355.9" height="14.4" style="fill:#fff"></rect></g><path d="M383.87,81.87H374.6c-.89,0-1.37,1.44-.79,2.38l4.66,7.65a.88.88,0,0,0,1.6,0l4.6-7.65C385.24,83.3,384.76,81.87,383.87,81.87Z" style="fill:#54D1EB"></path><path d="M383.87,81.87H374.6c-.89,0-1.37,1.44-.79,2.38l4.66,7.65a.88.88,0,0,0,1.6,0l4.6-7.65C385.24,83.3,384.76,81.87,383.87,81.87Z" style="fill:#fff;opacity:0.2"></path><path d="M329,91.9a.88.88,0,0,0,1.6,0" style="fill:#54D1EB"></path><path d="M329,91.9a.88.88,0,0,0,1.6,0" style="fill:#fff;opacity:0.2"></path><line x1="379.24" y1="92.41" x2="379.24" y2="150" style="fill:none;stroke:#263238;stroke-miterlimit:10"></line><rect x="375.73" y="132.09" width="7.02" height="7.02" rx="1.52" transform="translate(15.19 307.87) rotate(-45)" style="fill:#54D1EB;stroke:#54D1EB;stroke-miterlimit:10"></rect><line x1="72.05" y1="106.8" x2="153.43" y2="106.8" style="fill:none;stroke:#54D1EB;stroke-miterlimit:10;stroke-width:2px"></line><line x1="72.05" y1="106.8" x2="153.43" y2="106.8" style="fill:none;stroke:#000;stroke-miterlimit:10;stroke-width:2px;opacity:0.4"></line><line x1="72.05" y1="121.2" x2="264.61" y2="121.2" style="fill:none;stroke:#54D1EB;stroke-miterlimit:10;stroke-width:2px"></line><line x1="72.05" y1="121.2" x2="264.61" y2="121.2" style="fill:none;stroke:#000;stroke-miterlimit:10;stroke-width:2px;opacity:0.4"></line><line x1="72.05" y1="135.6" x2="374.93" y2="135.6" style="fill:none;stroke:#54D1EB;stroke-miterlimit:10;stroke-width:2px"></line><line x1="72.05" y1="135.6" x2="374.93" y2="135.6" style="fill:none;stroke:#000;stroke-miterlimit:10;stroke-width:2px;opacity:0.4"></line><line x1="268.5" y1="92.41" x2="268.5" y2="94.41" style="fill:none;stroke:#263238;stroke-miterlimit:10"></line><line x1="268.5" y1="98.56" x2="268.5" y2="137.92" style="fill:none;stroke:#263238;stroke-miterlimit:10;stroke-dasharray:4.143939971923828,4.143939971923828"></line><line x1="268.5" y1="140" x2="268.5" y2="142" style="fill:none;stroke:#263238;stroke-miterlimit:10"></line><rect x="264.99" y="117.69" width="7.02" height="7.02" rx="1.52" transform="translate(-7.06 225.36) rotate(-45)" style="fill:#fff"></rect><rect x="264.99" y="117.69" width="7.02" height="7.02" rx="1.52" transform="translate(-7.06 225.36) rotate(-45)" style="fill:none;stroke:#54D1EB;stroke-miterlimit:10"></rect><line x1="157.77" y1="92.41" x2="157.77" y2="94.41" style="fill:none;stroke:#263238;stroke-miterlimit:10"></line><line x1="157.77" y1="98.54" x2="157.77" y2="145.94" style="fill:none;stroke:#263238;stroke-miterlimit:10;stroke-dasharray:4.121799945831299,4.121799945831299"></line><line x1="157.77" y1="148" x2="157.77" y2="150" style="fill:none;stroke:#263238;stroke-miterlimit:10"></line><rect x="154.26" y="103.29" width="7.02" height="7.02" rx="1.52" transform="translate(-29.31 142.84) rotate(-45)" style="fill:#fff"></rect><rect x="154.26" y="103.29" width="7.02" height="7.02" rx="1.52" transform="translate(-29.31 142.84) rotate(-45)" style="fill:none;stroke:#54D1EB;stroke-miterlimit:10"></rect></g><g id="freepik--Cursor--inject-68"><polygon points="402.74 150.83 384.13 142.17 384.81 162.68 388.79 157.5 393.49 164.61 401.12 159.57 396.42 152.46 402.74 150.83" style="fill:#fff;stroke:#263238;stroke-linecap:round;stroke-linejoin:round"></polygon></g></svg>