<svg xmlns="http://www.w3.org/2000/svg" viewBox="0 0 500 500"><g id="freepik--background-simple--inject-69"><path d="M34.72,285.17s16.68,75.37,89.47,114S285.38,425,357.29,416.49,476.2,357.53,473,295.22s-60.79-70-103.22-133.61S325.72,74.73,255.44,43.88s-162.82,13.56-200.23,96S34.72,285.17,34.72,285.17Z" style="fill:#54D1EB"></path><path d="M34.72,285.17s16.68,75.37,89.47,114S285.38,425,357.29,416.49,476.2,357.53,473,295.22s-60.79-70-103.22-133.61S325.72,74.73,255.44,43.88s-162.82,13.56-200.23,96S34.72,285.17,34.72,285.17Z" style="fill:#fff;opacity:0.7000000000000001"></path></g><g id="freepik--Plants--inject-69"><path d="M33.6,280.86c1.54,1.33,4,1.32,5.92.92s5.1-2.71,6-3.36c.69,1,1.43,2.11,2.26,3.17a38.88,38.88,0,0,0,4.68,5.11l.06.06c-.67-.31-2.58-1.11-2.73-1.16C47.6,285,43,285,41.63,287.12a3,3,0,0,0,1.19,4.29c1.57.85,3.72.38,5.25-.33,1.73-.79,4.43-3.9,4.64-4.15a53,53,0,0,0,5.63,4.27c1.14.76,2.31,1.5,3.5,2.21-.59-.24-1.12-.46-1.2-.48-2.16-.63-6.72-.58-8.14,1.52a3,3,0,0,0,1.2,4.28c1.57.85,3.72.38,5.25-.32s3.91-3.33,4.52-4l1.37.81c2.21,1.3,4.41,2.58,6.53,3.9.75.46,1.47.95,2.19,1.43-.52-.22-1-.4-1-.42-2.16-.63-6.72-.57-8.13,1.52a3,3,0,0,0,1.19,4.29c1.57.84,3.72.38,5.25-.33s3.68-3.07,4.41-3.89c.73.52,1.45,1,2.13,1.57.46.37.92.7,1.36,1.1L80,305.53c.8.77,1.63,1.55,2.4,2.32.54.53,1,1,1.55,1.56-.74-.47-2.21-1.37-2.34-1.43-2.05-1-6.56-1.59-8.28.27a3,3,0,0,0,.54,4.42c1.42,1.07,3.61.93,5.23.47,1.79-.51,4.82-3.06,5.19-3.38.84.86,1.64,1.7,2.39,2.51,1.07,1.14,5,4.75,5.83,5.75a30.42,30.42,0,0,1,2.28,2.83l1.93-.14a22,22,0,0,0-.29-3c-.27-1.88-.82-6.83-1.29-9.34-.22-1.19-.48-2.46-.76-3.77.45-.17,4.14-1.62,5.44-2.95s2.35-3.07,2.08-4.83a3,3,0,0,0-3.63-2.58c-2.45.63-4,4.9-4.18,7.15,0,.14.07,1.59.13,2.5-.12-.53-.23-1.05-.36-1.6-.24-1.08-.52-2.15-.81-3.31-.16-.55-.33-1.11-.49-1.67s-.38-1.14-.57-1.72c-.47-1.32-1-2.64-1.59-4,1-.22,4.3-1,5.66-2.05s2.78-2.68,2.78-4.47a3,3,0,0,0-3.2-3.09c-2.51.25-4.73,4.23-5.21,6.44,0,.13-.19,1.75-.27,2.65-.35-.79-.7-1.58-1.08-2.37-1.1-2.27-2.28-4.54-3.45-6.8l-1.07-2.09c.34-.07,4.35-1,5.86-2.1,1.35-1,2.79-2.68,2.79-4.46a3,3,0,0,0-3.2-3.09c-2.51.24-4.73,4.22-5.21,6.43,0,.17-.27,2.5-.3,3.1-.78-1.54-1.54-3.07-2.22-4.61a53.65,53.65,0,0,1-2.41-6.39c.16,0,4.35-.95,5.9-2.11,1.35-1,2.78-2.68,2.78-4.46a3,3,0,0,0-3.19-3.1c-2.52.25-4.74,4.23-5.22,6.44,0,.14-.21,1.92-.27,2.77h-.15a39.2,39.2,0,0,1-1.22-6.76c-.12-1.26-.18-2.46-.2-3.64.79-.09,4.43-.54,6-1.43s3-2.36,3.26-4.13a3,3,0,0,0-2.85-3.43c-2.52,0-5.16,3.68-5.88,5.82,0,.12-.31,1.35-.49,2.24,0-.53,0-1.08,0-1.58,0-1.92.16-3.66.3-5.21.08-.88.18-1.67.27-2.42.74-.49,3.68-2.53,4.59-4s1.63-3.5,1-5.17a3,3,0,0,0-4.1-1.73c-2.25,1.14-2.89,5.65-2.54,7.88,0,.19.85,3.15.89,3.13l0,0c-.11.71-.22,1.47-.31,2.31-.17,1.55-.35,3.3-.41,5.22,0,.68,0,1.38,0,2.1-.33-.9-1.1-2.84-1.17-3-1.21-2.27-4.87-5.94-7.7-5.43a3.4,3.4,0,0,0-2.55,4.37c.56,1.95,2.64,3.33,4.43,4s6.16.53,7,.49c0,1.17,0,2.37.13,3.62a39.69,39.69,0,0,0,1.08,6.85l0,.08c-.39-.63-1.55-2.35-1.65-2.47-1.46-1.72-5.29-4.19-7.63-3.22a3,3,0,0,0-1.36,4.23c.84,1.58,2.89,2.37,4.56,2.63,1.87.29,5.84-.82,6.16-.91a53.46,53.46,0,0,0,2.33,6.67c.54,1.26,1.11,2.52,1.7,3.78-.35-.54-.67-1-.73-1.07-1.46-1.72-5.29-4.19-7.62-3.22a3,3,0,0,0-1.37,4.23c.84,1.57,2.89,2.37,4.56,2.63s5.09-.62,6-.86l.69,1.44c1.13,2.29,2.26,4.57,3.3,6.85.37.8.7,1.6,1,2.4-.31-.47-.58-.87-.63-.92-1.46-1.72-5.29-4.19-7.63-3.22a3,3,0,0,0-1.36,4.23c.84,1.57,2.89,2.37,4.55,2.63s4.77-.54,5.83-.82c.32.83.64,1.66.91,2.48.18.57.38,1.1.52,1.67s.31,1.13.46,1.69c.24,1.08.51,2.2.72,3.26.16.74.29,1.44.43,2.15-.35-.8-1.09-2.35-1.16-2.48a11.69,11.69,0,0,0-4.38-3.89,3.36,3.36,0,0,0-.39-.54,3,3,0,0,0-4.45-.14c-1.7,1.87-.67,6.31.46,8.27.07.11.93,1.28,1.48,2-.39-.37-.76-.75-1.17-1.13-.8-.77-1.63-1.51-2.51-2.31l-1.33-1.13c-.44-.39-1-.74-1.43-1.12-1.12-.84-2.3-1.64-3.5-2.43.67-.7,3-3.23,3.58-4.83s.84-3.77-.14-5.26a3,3,0,0,0-4.37-.81c-2,1.59-1.62,6.14-.8,8.24,0,.13.81,1.57,1.24,2.36-.73-.47-1.46-.93-2.21-1.38-2.17-1.29-4.41-2.52-6.63-3.77l-2-1.15c.24-.25,3.09-3.2,3.73-5,.56-1.58.84-3.76-.14-5.25a3,3,0,0,0-4.37-.82c-2,1.6-1.62,6.14-.8,8.24.06.16,1.15,2.24,1.46,2.75-1.5-.85-3-1.71-4.4-2.62a53.16,53.16,0,0,1-5.53-4c.11-.12,3.1-3.18,3.75-5,.57-1.59.85-3.77-.13-5.26a3,3,0,0,0-4.38-.82c-2,1.6-1.61,6.14-.8,8.24.06.14.89,1.73,1.3,2.47l-.11.09a38.71,38.71,0,0,1-4.75-5c-.8-1-1.51-1.95-2.18-2.92.62-.51,3.4-2.9,4.17-4.48s1.25-3.65.44-5.24a3,3,0,0,0-4.26-1.29c-2.12,1.37-2.28,5.92-1.69,8.1,0,.12.48,1.29.83,2.14-.3-.44-.61-.89-.89-1.32-1-1.61-1.88-3.14-2.62-4.5-.42-.78-.78-1.5-1.11-2.17.34-.82,1.68-4.14,1.63-5.86s-.57-3.82-2-4.86a3,3,0,0,0-4.38.82c-1.25,2.19.71,6.31,2.23,8,.13.15,2.44,2.16,2.46,2.12l0,0c.31.65.64,1.35,1,2.1.71,1.38,1.53,2.94,2.54,4.58.25.4.5.82.77,1.24-.85-.61-2.18-1.54-2.31-1.61-2.26-1.23-7.34-2.27-9.42-.29A3.4,3.4,0,0,0,33.6,280.86Zm51.49,27.65a33.22,33.22,0,0,0,2-3.24,22,22,0,0,0,6,0c.22,1.17.43,2.32.61,3.4.4,2.46.9,7.35,1.12,9.19l.09.55-.64-.82c-1.11-1.23-5-4.85-6.47-6.35C87,310.36,86,309.44,85.09,308.51Z" style="fill:#263238"></path><path d="M443.26,130.8c-2.16-1.9-7.19-.65-9.4.67-.12.07-1.42,1.05-2.24,1.7.25-.43.49-.85.72-1.27.94-1.68,1.7-3.27,2.35-4.68.35-.76.66-1.47.93-2.14l0,0s2.25-2.06,2.37-2.21c1.46-1.73,3.25-5.92,1.91-8.06a3,3,0,0,0-4.41-.64c-1.41,1.09-1.85,3.25-1.82,4.93s1.49,5,1.86,5.8c-.3.68-.63,1.41-1,2.2-.68,1.4-1.47,3-2.44,4.61-.26.44-.55.9-.83,1.36.31-.86.72-2.05.75-2.17.49-2.2.15-6.75-2-8a3,3,0,0,0-4.2,1.46c-.75,1.62-.15,3.74.65,5.22s3.71,3.82,4.35,4.31c-.63,1-1.3,2-2.06,3a38.59,38.59,0,0,1-4.54,5.16l-.12-.09c.38-.75,1.15-2.37,1.2-2.51.73-2.13.89-6.69-1.13-8.2a3,3,0,0,0-4.34,1c-.92,1.53-.55,3.7.08,5.26.72,1.8,3.83,4.74,3.95,4.85a51.86,51.86,0,0,1-5.37,4.23c-1.38,1-2.82,1.88-4.28,2.79.28-.52,1.29-2.64,1.34-2.8.74-2.14.9-6.69-1.13-8.2a3,3,0,0,0-4.34,1c-.91,1.53-.55,3.69.08,5.26.71,1.76,3.68,4.59,3.93,4.83l-2,1.23c-2.17,1.33-4.36,2.66-6.48,4-.73.47-1.44,1-2.14,1.46.39-.8,1.09-2.27,1.14-2.4.73-2.14.89-6.69-1.13-8.21a3,3,0,0,0-4.34,1c-.92,1.53-.55,3.7.07,5.26s3.08,4,3.78,4.69c-1.17.83-2.32,1.68-3.41,2.57-.46.39-.95.77-1.37,1.17l-1.29,1.18c-.85.84-1.64,1.61-2.41,2.41-.39.4-.75.79-1.13,1.19.53-.76,1.34-2,1.4-2.08,1.05-2,1.9-6.48.12-8.28a3,3,0,0,0-4.43.32,3.87,3.87,0,0,0-.38.55,11.62,11.62,0,0,0-4.21,4.07c-.07.13-.74,1.71-1.06,2.53.11-.72.21-1.43.34-2.17.17-1.07.39-2.2.59-3.29l.39-1.7c.11-.58.3-1.12.45-1.69.24-.83.52-1.68.81-2.52,1.08.24,4.25.9,5.85.58s3.67-1.2,4.45-2.81a3,3,0,0,0-1.53-4.17c-2.38-.87-6.11,1.75-7.5,3.53,0,.05-.29.46-.59.94.3-.81.6-1.63.93-2.44.95-2.32,2-4.64,3-7,.22-.49.42-1,.64-1.47.9.21,4.34.95,6,.62s3.66-1.2,4.44-2.81a3,3,0,0,0-1.53-4.17c-2.38-.87-6.1,1.75-7.49,3.53,0,.06-.36.55-.69,1.09.54-1.28,1.07-2.56,1.55-3.84a52.79,52.79,0,0,0,2.06-6.76c.32.08,4.33,1,6.19.66,1.66-.33,3.67-1.21,4.45-2.81a3,3,0,0,0-1.54-4.18c-2.37-.87-6.1,1.76-7.49,3.53-.09.13-1.18,1.9-1.54,2.54a.24.24,0,0,1,0-.08,38.27,38.27,0,0,0,.8-6.89c.05-1.25,0-2.46,0-3.63.83,0,5.1,0,7-.77s3.79-2.23,4.26-4.2a3.4,3.4,0,0,0-2.72-4.27c-2.85-.39-6.36,3.43-7.47,5.74-.07.15-.76,2.13-1.05,3,0-.72-.08-1.43-.13-2.1-.14-1.92-.39-3.66-.62-5.2-.14-.83-.27-1.59-.41-2.3l.05,0s.74-3,.76-3.16c.26-2.24-.56-6.72-2.86-7.77a3,3,0,0,0-4,1.9c-.57,1.69.26,3.73,1.2,5.12s4,3.34,4.75,3.8c.13.74.25,1.53.37,2.41.2,1.54.41,3.28.51,5.19,0,.5,0,1,.06,1.58-.22-.89-.54-2.1-.58-2.21-.8-2.11-3.59-5.72-6.12-5.58a3,3,0,0,0-2.7,3.53c.28,1.77,1.94,3.2,3.43,4s5.2,1.13,6,1.19c0,1.17,0,2.38-.06,3.64a38.78,38.78,0,0,1-.94,6.81h-.15c-.1-.84-.35-2.61-.39-2.76-.56-2.18-2.94-6.07-5.47-6.21a3,3,0,0,0-3.07,3.22c.08,1.78,1.58,3.38,3,4.34,1.6,1.11,5.82,1.84,6,1.87a52.42,52.42,0,0,1-2.15,6.49c-.62,1.56-1.32,3.13-2,4.69-.06-.6-.38-2.92-.43-3.08-.56-2.19-2.94-6.07-5.47-6.22a3,3,0,0,0-3.07,3.22c.08,1.78,1.58,3.39,3,4.35,1.56,1.07,5.6,1.8,5.94,1.86-.33.71-.65,1.42-1,2.12-1.08,2.31-2.17,4.63-3.18,6.94-.34.8-.66,1.61-1,2.41-.11-.89-.34-2.5-.37-2.64-.57-2.18-2.95-6.07-5.47-6.22a3,3,0,0,0-3.07,3.22c.07,1.79,1.57,3.39,3,4.35s4.78,1.64,5.73,1.82c-.52,1.34-1,2.68-1.42,4-.17.58-.37,1.16-.5,1.73l-.42,1.7c-.25,1.16-.48,2.25-.68,3.34-.11.55-.2,1.07-.29,1.61,0-.92,0-2.37,0-2.5-.23-2.25-2-6.45-4.46-7a3,3,0,0,0-3.53,2.72c-.19,1.77,1,3.59,2.28,4.74s5.1,2.58,5.56,2.73c-.23,1.32-.44,2.6-.61,3.81-.37,2.52-.72,7.49-.92,9.37a22.07,22.07,0,0,0-.16,3l1.94.06a29.51,29.51,0,0,1,2.15-2.93c.84-1,4.58-4.79,5.6-6,.71-.84,1.48-1.71,2.28-2.6.39.3,3.52,2.73,5.32,3.17,1.64.39,3.84.44,5.22-.69a3,3,0,0,0,.35-4.43c-1.79-1.79-6.27-1-8.28.06-.13.07-1.56,1-2.28,1.52l1.48-1.62c.74-.79,1.54-1.61,2.31-2.41l1.26-1.21c.42-.42.87-.77,1.31-1.16.66-.56,1.36-1.11,2.07-1.65.76.79,3.05,3.09,4.56,3.71s3.73,1,5.26.11a3,3,0,0,0,1-4.33c-1.5-2-6.05-1.91-8.19-1.19l-1,.46c.7-.51,1.4-1,2.13-1.52,2.07-1.41,4.22-2.78,6.36-4.16.45-.28.89-.58,1.34-.87.64.68,3.1,3.19,4.68,3.84s3.73,1,5.26.11a3,3,0,0,0,1-4.33c-1.5-2-6-1.91-8.19-1.19-.08,0-.6.26-1.18.54,1.16-.77,2.3-1.55,3.41-2.36a52.57,52.57,0,0,0,5.45-4.5c.22.24,3.05,3.25,4.81,4,1.55.64,3.72,1,5.25.11a3,3,0,0,0,1-4.33c-1.5-2-6.06-1.91-8.2-1.19-.15.05-2,.93-2.69,1.26l.06,0a39.28,39.28,0,0,0,4.47-5.3c.79-1.1,1.49-2.19,2.13-3.26.91.61,4.21,2.78,6.11,3.11s4.39.23,5.88-1.15A3.4,3.4,0,0,0,443.26,130.8Zm-53,37.6c-1.39,1.56-5.15,5.33-6.21,6.61l-.6.84.06-.55c.15-1.84.44-6.76.75-9.22.14-1.1.3-2.25.47-3.43a21.82,21.82,0,0,0,6-.24,32.12,32.12,0,0,0,2.15,3.16C391.94,166.54,391.06,167.5,390.25,168.4Z" style="fill:#263238"></path></g><g id="freepik--window-2--inject-69"><rect x="94.89" y="58.6" width="286.24" height="323.88" style="fill:none;stroke:#263238;stroke-miterlimit:10;stroke-width:0.9076476097106934px"></rect><rect x="94.89" y="58.6" width="286.24" height="14.01" style="fill:#263238;stroke:#263238;stroke-linecap:round;stroke-linejoin:round;stroke-width:0.9076476097106934px"></rect><path d="M106.73,64.7a3,3,0,1,1-3-3A3,3,0,0,1,106.73,64.7Z" style="fill:#54D1EB;stroke:#263238;stroke-linecap:round;stroke-linejoin:round;stroke-width:0.9076476097106934px"></path><path d="M115.73,64.7a3,3,0,1,1-3-3A3,3,0,0,1,115.73,64.7Z" style="fill:#54D1EB;stroke:#263238;stroke-linecap:round;stroke-linejoin:round;stroke-width:0.9076476097106934px"></path><path d="M124.73,64.7a3,3,0,1,1-3-3A3,3,0,0,1,124.73,64.7Z" style="fill:#54D1EB;stroke:#263238;stroke-linecap:round;stroke-linejoin:round;stroke-width:0.9076476097106934px"></path></g><g id="freepik--character-2--inject-69"><path d="M338.31,126.16c-.83-3.31-11.64-5.75-12.75-5.25-.22.1-.48.84-.76,2a13.12,13.12,0,0,0-1.81-.29c-1.1,0-2,5.79-2,5.79s-.09,10,.29,12.41l-20,34.95-34.12-16.94c-2.55,9.85,13.88,26.14,13.88,26.14s22.63,7.11,26.66,4.94,20.86-47.61,20.86-47.61a49,49,0,0,0,4.51-4.05C334.65,136.51,339.14,129.46,338.31,126.16Z" style="fill:#b0b0b0"></path><polyline points="277.08 174.08 303.58 184.47 325.74 141.52 332.86 122.54" style="fill:none;stroke:#54D1EB;stroke-miterlimit:10;stroke-width:0.9076476097106934px"></polyline><path d="M306,183.39a2.6,2.6,0,1,0-1.3,3.45A2.61,2.61,0,0,0,306,183.39Z" style="fill:#54D1EB"></path><path d="M327.82,140a2.61,2.61,0,1,0-1.3,3.45A2.6,2.6,0,0,0,327.82,140Z" style="fill:#54D1EB"></path><path d="M335.17,123.25a2.6,2.6,0,1,0-2.6,2.6A2.6,2.6,0,0,0,335.17,123.25Z" style="fill:#54D1EB"></path><path d="M266.09,146.13S280.4,176.89,282.84,183s-.92,12.79-5.18,17.36a29.51,29.51,0,0,1-8.22,6.39c-.92.61-10.66,15.53-14.32,26.8S250,254.24,239,257.59s-27.41-4.57-30.45-17.66,4.26-25,12.48-30.46,14-10.66,16.14-14.31,6.1-21.32,9.75-31.06S261.21,144.3,266.09,146.13Z" style="fill:#8a8a8a"></path><path d="M301.78,92.7c-6.36.2-10.2,2-12.25,3.31-6.18-2.28-13.75-2.8-19.66-.76a18.69,18.69,0,0,0-9.24,6.48,18.09,18.09,0,0,0-1.61,2.59,23.6,23.6,0,0,0-2.08,6,35.21,35.21,0,0,0-.69,5.07c0,.29,0,.59,0,.88,0,.09,0,.19,0,.28s0,.41,0,.62,0,.22,0,.34,0,.38.05.57,0,.23,0,.35,0,.38.07.57l.06.36.09.56c0,.12.05.25.08.37s.07.38.12.57l.09.36c0,.19.09.38.14.57s.07.24.1.36.11.39.17.58.07.24.11.36.12.38.19.57a3.59,3.59,0,0,0,.12.35c.06.2.13.39.2.59a3.42,3.42,0,0,1,.13.34c.08.19.15.39.22.58l.15.35c.07.19.15.37.23.56l.15.35c.08.19.16.37.25.56l.15.33.26.56.16.33.27.54c0,.11.11.23.17.34s.17.35.26.52l.18.33.27.5.18.33.27.48c.07.11.13.22.19.33l.26.45.21.34c.08.14.16.28.25.42l.21.34.23.38.23.35c.07.12.15.23.22.34s.15.24.23.35l.2.31.24.36.18.25.25.37.16.21.26.37.12.17.28.37.09.12.28.37.07.08.28.36,0,.05.28.34,0,0c.09.11.18.22.27.31h0c.14.17.28.31.39.43,2.27,2.27,1.62,6.16.33,7.78l-.25.31-.61-1.31c-4.88-1.83-15.54,8.22-19.19,18s-7.61,27.41-9.75,31.06-7.56,8.5-15.36,13.79a68.77,68.77,0,0,0,34.75,20.74c4.28-10.55,12.08-22.42,12.9-23a29.51,29.51,0,0,0,8.22-6.39c4.26-4.57,7.61-11.27,5.18-17.36-1-2.54-4.09-9.35-7.33-16.44,1-4.2,3.37-13.88,5.38-17.14a33.4,33.4,0,0,1,3.89-5.51s13.3,3.89,15.57,1.94,6.16-13.94,6.16-13.94,4.54-1.95,3.89-4.22-5.51-3.24-5.84-7.13c-.07-.92-.11-1.74-.13-2.46a7.38,7.38,0,0,0,1.64,0c3.3-.33,2.31-4.29,1.32-5.94s3-3.63,5.28-6.93S312.34,92.37,301.78,92.7Z" style="fill:#b0b0b0"></path><path d="M287.59,97.65s3.63-4.62,14.19-5,13.2,9.24,10.89,12.54-6.27,5.28-5.28,6.93,2,5.61-1.32,5.94-5.28-1.32-5.61-4.29S291.88,98,287.59,97.65Z" style="fill:#8a8a8a"></path><path d="M304.56,114.38s-.65-6.16-6.16-12.65S279.27,92,269.87,95.25s-13,10.7-13.62,20.1,8.1,21.73,10.37,24,1.62,6.16.33,7.78-1.95,2.59-1.95,2.59l10.05,18.81s3.25-14.92,5.84-19.13a33.4,33.4,0,0,1,3.89-5.51s13.3,3.89,15.57,1.94,6.16-13.94,6.16-13.94,4.54-1.95,3.89-4.22-5.51-3.24-5.84-7.13A30.75,30.75,0,0,1,304.56,114.38Z" style="fill:#b0b0b0"></path><path d="M298.4,101.73c-5.51-6.48-19.13-9.73-28.53-6.48s-13,10.7-13.62,20.1c-.64,9.22,7.76,21.23,10.23,23.84,2.36.11,7.92-1,12.14-12.17,0,0,3.57.65,6.16-3.56s-.32-8.43,3.24-13.3c3-4,11.29-3.38,14-3A29.31,29.31,0,0,0,298.4,101.73Z" style="fill:#8a8a8a"></path><path d="M282.51,128.32s-4.54-8.75-8.43-6.48-1.3,9.4.65,12.32,6.81-1,6.81-1" style="fill:#b0b0b0"></path><polyline points="285.66 115.08 270.81 157.64 251.13 203.01 225.84 245.57" style="fill:none;stroke:#54D1EB;stroke-miterlimit:10;stroke-width:0.9076476097106934px"></polyline><path d="M288.27,115.08a2.61,2.61,0,1,0-2.61,2.61A2.6,2.6,0,0,0,288.27,115.08Z" style="fill:#54D1EB"></path><path d="M273.41,157.64a2.61,2.61,0,1,0-2.6,2.61A2.6,2.6,0,0,0,273.41,157.64Z" style="fill:#54D1EB"></path><circle cx="251.13" cy="203.01" r="2.6" style="fill:#54D1EB"></circle><circle cx="225.84" cy="245.57" r="2.6" style="fill:#54D1EB"></circle><path d="M263.85,151.5s-50.08-9.87-53.92-9.19c-3.13.56-28.41,17.69-37.62,24,0,0-12.16,5.13-13.61,7.81s3.44,7.06,3.44,7.06a4.58,4.58,0,0,0,2.6,3.5c2.29.89,10-5,10.18-6.61.13-1.12,2-3.93,3.15-5.57,8.45-4,34.48-15.22,34.48-15.22s44.63,14.19,49.9,11.5S272.44,155.48,263.85,151.5Z" style="fill:#b0b0b0"></path><polyline points="263.18 160.05 209.84 148.9 176.26 169.49 162.14 181.16" style="fill:none;stroke:#54D1EB;stroke-miterlimit:10;stroke-width:0.9076476097106934px"></polyline><path d="M265.47,161.29a2.6,2.6,0,1,0-3.54,1.05A2.62,2.62,0,0,0,265.47,161.29Z" style="fill:#54D1EB"></path><path d="M211.22,150.56a2.61,2.61,0,1,0-3.53,1.05A2.6,2.6,0,0,0,211.22,150.56Z" style="fill:#54D1EB"></path><path d="M178.55,170.74a2.61,2.61,0,1,0-3.53,1A2.6,2.6,0,0,0,178.55,170.74Z" style="fill:#54D1EB"></path><path d="M164.54,182a2.61,2.61,0,1,0-3.53,1A2.59,2.59,0,0,0,164.54,182Z" style="fill:#54D1EB"></path><path d="M262.31,109s-5.44-17.07-16.82-25.13-20.66,1-28.11,4S205,84,199.33,79.45s-17.23,3.07-12.55,18.48,25.37,18.57,34.89,14.42S237,99.75,245.2,101.5s14.51,9.56,14.51,9.56Z" style="fill:#8a8a8a"></path><polyline points="257.73 103.62 237.86 88.44 207.21 101.13 195.67 86.73" style="fill:none;stroke:#54D1EB;stroke-miterlimit:10;stroke-width:0.9076476097106934px"></polyline><path d="M209.49,102.38a2.6,2.6,0,1,0-3.53,1A2.6,2.6,0,0,0,209.49,102.38Z" style="fill:#54D1EB"></path><path d="M198.14,88a2.61,2.61,0,1,0-3.54,1A2.6,2.6,0,0,0,198.14,88Z" style="fill:#54D1EB"></path><path d="M240.15,89.68a2.6,2.6,0,1,0-3.53,1A2.6,2.6,0,0,0,240.15,89.68Z" style="fill:#54D1EB"></path><path d="M260,104.87a2.6,2.6,0,1,0-3.53,1A2.6,2.6,0,0,0,260,104.87Z" style="fill:#54D1EB"></path><path d="M216,233.79S181.93,277.71,182.21,283s5.1,12.65,13.32,9.42,38.75-22,48.81-35S234.26,216.75,216,233.79Z" style="fill:#8a8a8a"></path><path d="M220.56,223.17s36.4.71,64.95,11.77,28.19,13.56,27.12,17.85-10.7,7.13-45,8.2-45-1.78-56-16.05" style="fill:#8a8a8a"></path><path d="M196.86,276.14s-10.67-7.18-22.77-10.31-35.23-10.58-36.29-11.3-11.63-9.49-13-8.95-19.32,23.39-19.43,25-.18,2.38,3.12,1l5.61-2.31c1.65-.67,19-5.49,19-5.49s44.2,25.8,50.12,28a26.44,26.44,0,0,0,12,1.19,17,17,0,0,0,6.46-3.77" style="fill:#8a8a8a"></path><path d="M153.52,259.82c-8.19-2.57-15.15-4.9-15.72-5.29-1.07-.72-11.63-9.49-13-8.95s-19.32,23.39-19.43,25-.18,2.38,3.12,1l5.61-2.31c1.65-.67,19-5.49,19-5.49s5.66,3.31,13.2,7.65A24.39,24.39,0,0,1,153.52,259.82Z" style="fill:#b0b0b0"></path><path d="M128.71,260.59l6.71-7.9c-3.5-2.76-9.59-7.51-10.57-7.11-1.32.55-19.32,23.39-19.43,25s-.18,2.38,3.12,1l5.61-2.31c1.65-.67,19-5.49,19-5.49l.22.13C132.25,261.76,128.71,260.59,128.71,260.59Z" style="fill:#dedede"></path><polyline points="227.84 249.19 192.76 284.16 134.39 257.13 118.31 261.98 105.42 270.56" style="fill:none;stroke:#54D1EB;stroke-miterlimit:10;stroke-width:0.9076476097106934px"></polyline><path d="M194,284.75a2.6,2.6,0,1,0-3.46,1.25A2.6,2.6,0,0,0,194,284.75Z" style="fill:#54D1EB"></path><path d="M137.65,259.15a2.6,2.6,0,1,0-3.46,1.24A2.6,2.6,0,0,0,137.65,259.15Z" style="fill:#54D1EB"></path><path d="M120.66,263.09a2.6,2.6,0,1,0-3.46,1.25A2.61,2.61,0,0,0,120.66,263.09Z" style="fill:#54D1EB"></path><path d="M109.13,271.28a2.6,2.6,0,1,0-3.46,1.25A2.59,2.59,0,0,0,109.13,271.28Z" style="fill:#54D1EB"></path><path d="M319.51,329.83c2.33-.78,8.39-.75,12.54-2-4.15-4.33-7.57-7.92-7.57-7.92s-9.44-64.61-11.36-69.6-5.4-6.37-9.91-4.56l-20,10.59S319.59,329.17,319.51,329.83Z" style="fill:#8a8a8a"></path><path d="M319.51,329.83c2.33-.78,8.39-.75,12.54-2-4.15-4.33-7.57-7.92-7.57-7.92s-1.07-6.59-2.6-15.71a23.17,23.17,0,0,1-12.59,4.55C314.8,319.88,319.54,329.55,319.51,329.83Z" style="fill:#b0b0b0"></path><path d="M325.29,341.57c2.14-.37,24-10.05,26.81-12.67s6.17-7.77,3.19-8.53-6.11,2-11.16,2.82-20.76-3.74-20.76-3.74C322.32,322.67,327,328,327,328l-7.48,1.83S323.15,341.94,325.29,341.57Z" style="fill:#dedede"></path><polyline points="355.6 321.6 339.2 328.29 321.81 323.27 300.73 253.69 221.42 234.59" style="fill:none;stroke:#54D1EB;stroke-miterlimit:10;stroke-width:0.9076476097106934px"></polyline><path d="M324.41,323.27a2.61,2.61,0,1,0-2.6,2.61A2.6,2.6,0,0,0,324.41,323.27Z" style="fill:#54D1EB"></path><path d="M303.34,253.69a2.61,2.61,0,1,0-2.61,2.61A2.6,2.6,0,0,0,303.34,253.69Z" style="fill:#54D1EB"></path><path d="M224,234.59a2.61,2.61,0,1,0-2.6,2.6A2.61,2.61,0,0,0,224,234.59Z" style="fill:#54D1EB"></path><circle cx="339.2" cy="328.29" r="2.6" style="fill:#54D1EB"></circle><path d="M356.86,322.27a2.61,2.61,0,1,0-2.6,2.6A2.59,2.59,0,0,0,356.86,322.27Z" style="fill:#54D1EB"></path></g><g id="freepik--character-1--inject-69"><line x1="114.01" y1="372.25" x2="370.88" y2="372.25" style="fill:none;stroke:#263238;stroke-miterlimit:10;stroke-width:0.9076476097106934px"></line><path d="M262.12,107.53s-12.93-12.4-26.78-14-17.68,10.76-22.78,17S199.8,113,192.7,111.72,179,122.65,190.51,134s31.16,4.19,37.54-4,7.47-18.41,15.49-20.77,17.31,1.45,17.31,1.45Z" style="fill:#263238;stroke:#263238;stroke-miterlimit:10;stroke-width:0.9076476097106934px"></path><polyline points="255.55 105.04 230.84 101.2 209.98 127 192.97 119.86" style="fill:none;stroke:#54D1EB;stroke-miterlimit:10;stroke-width:0.9076476097106934px"></polyline><path d="M212.59,127a2.61,2.61,0,1,0-2.61,2.6A2.61,2.61,0,0,0,212.59,127Z" style="fill:#54D1EB"></path><circle cx="193.12" cy="119.77" r="2.6" style="fill:#54D1EB"></circle><path d="M233.45,101.2a2.61,2.61,0,1,0-2.61,2.6A2.61,2.61,0,0,0,233.45,101.2Z" style="fill:#54D1EB"></path><path d="M258.15,105a2.6,2.6,0,1,0-2.6,2.6A2.6,2.6,0,0,0,258.15,105Z" style="fill:#54D1EB"></path><path d="M271,159.83,295,189.37,328.82,165s9.75-15.53,11-15.53,10,6.7,9.44,10.05-7.62,7.92-9.75,8.83a50.07,50.07,0,0,1-5.79,1.83S299.59,204.6,295,204.91s-22.23-15.54-22.23-15.54S264.56,167.75,271,159.83Z" style="fill:#fff;stroke:#263238;stroke-miterlimit:10;stroke-width:0.9076476097106934px"></path><path d="M327.6,166.29c0-1.24,4.95-11.88,4.95-11.88s3.22-4.95,4.21-4.46,6.68,4.7,5.94,5.94-5.7-.74-5.7-.74,3,5.2-1,8.91" style="fill:#fff;stroke:#263238;stroke-miterlimit:10;stroke-width:0.9076476097106934px"></path><line x1="338.24" y1="156.63" x2="343.69" y2="161.34" style="fill:none;stroke:#263238;stroke-miterlimit:10;stroke-width:0.9076476097106934px"></line><polyline points="265.66 166.63 293.49 198.25 331.43 168.32 345.76 153.99" style="fill:none;stroke:#54D1EB;stroke-miterlimit:10;stroke-width:0.9076476097106934px"></polyline><path d="M296.09,198.25a2.61,2.61,0,1,0-2.6,2.61A2.59,2.59,0,0,0,296.09,198.25Z" style="fill:#54D1EB"></path><path d="M334,167.78a2.6,2.6,0,1,0-2.6,2.6A2.6,2.6,0,0,0,334,167.78Z" style="fill:#54D1EB"></path><path d="M287.59,97.65s3.63-4.62,14.19-5,13.2,9.24,10.89,12.54-6.27,5.28-5.28,6.93,2,5.61-1.32,5.94-5.28-1.32-5.61-4.29S291.88,98,287.59,97.65Z" style="fill:#263238;stroke:#263238;stroke-miterlimit:10;stroke-width:0.9076476097106934px"></path><path d="M304.56,114.38s-.65-6.16-6.16-12.65S279.27,92,269.87,95.25s-13,10.7-13.62,20.1,8.1,21.73,10.37,24,1.62,6.16.33,7.78-1.95,2.59-1.95,2.59l10.05,18.81s3.25-14.92,5.84-19.13a33.4,33.4,0,0,1,3.89-5.51s13.3,3.89,15.57,1.94,6.16-13.94,6.16-13.94,4.54-1.95,3.89-4.22-5.51-3.24-5.84-7.13A30.75,30.75,0,0,1,304.56,114.38Z" style="fill:#fff;stroke:#263238;stroke-miterlimit:10;stroke-width:0.9076476097106934px"></path><ellipse cx="299.85" cy="122.88" rx="1.06" ry="2.11" style="fill:#263238"></ellipse><path d="M296,116.36a4.32,4.32,0,0,1,5.29.71" style="fill:none;stroke:#263238;stroke-miterlimit:10;stroke-width:0.9076476097106934px"></path><path d="M302.16,135.1s-4.08.41-4.89-2.45" style="fill:none;stroke:#263238;stroke-miterlimit:10;stroke-width:0.9076476097106934px"></path><path d="M298.4,101.73c-5.51-6.48-19.13-9.73-28.53-6.48s-13,10.7-13.62,20.1c-.64,9.22,7.76,21.23,10.23,23.84,2.36.11,7.92-1,12.14-12.17,0,0,3.57.65,6.16-3.56s-.32-8.43,3.24-13.3c3-4,11.29-3.38,14-3A29.31,29.31,0,0,0,298.4,101.73Z" style="fill:#263238;stroke:#263238;stroke-miterlimit:10;stroke-width:0.9076476097106934px"></path><path d="M282.51,128.32s-4.54-8.75-8.43-6.48-1.3,9.4.65,12.32,6.81-1,6.81-1" style="fill:#fff;stroke:#263238;stroke-miterlimit:10;stroke-width:0.9076476097106934px"></path><path d="M266.09,146.13S280.4,176.89,282.84,183s-.92,12.79-5.18,17.36a29.51,29.51,0,0,1-8.22,6.39c-.92.61-10.66,15.53-14.32,26.8S250,254.24,239,257.59s-27.41-4.57-30.45-17.66,4.26-25,12.48-30.46,14-10.66,16.14-14.31,6.1-21.32,9.75-31.06S261.21,144.3,266.09,146.13Z" style="fill:#263238;stroke:#263238;stroke-miterlimit:10;stroke-width:0.9076476097106934px"></path><path d="M277.66,200.34c4.26-4.57,7.61-11.27,5.18-17.36s-16.75-36.85-16.75-36.85c-4.88-1.83-15.54,8.22-19.19,18s-7.61,27.41-9.75,31.06-7.56,8.5-15.36,13.79a68.77,68.77,0,0,0,34.75,20.74c4.28-10.55,12.08-22.42,12.9-23A29.51,29.51,0,0,0,277.66,200.34Z" style="fill:gray;stroke:#263238;stroke-miterlimit:10;stroke-width:0.9076476097106934px"></path><path d="M256.35,174.1s4.42,17.67,7.23,22.09" style="fill:none;stroke:#263238;stroke-miterlimit:10;stroke-width:0.9076476097106934px"></path><path d="M252.34,175.31s4,10.44,5.62,15.26" style="fill:none;stroke:#263238;stroke-miterlimit:10;stroke-width:0.9076476097106934px"></path><path d="M229.45,211a82.35,82.35,0,0,0,29.31-1.2" style="fill:none;stroke:#263238;stroke-miterlimit:10;stroke-width:0.9076476097106934px"></path><path d="M237.08,208.23s18-.94,29.31-4.41" style="fill:none;stroke:#263238;stroke-miterlimit:10;stroke-width:0.9076476097106934px"></path><polyline points="285.66 115.08 270.81 157.64 251.13 203.01 225.84 245.57" style="fill:none;stroke:#54D1EB;stroke-miterlimit:10;stroke-width:0.9076476097106934px"></polyline><path d="M288.27,115.08a2.61,2.61,0,1,0-2.61,2.61A2.6,2.6,0,0,0,288.27,115.08Z" style="fill:#54D1EB"></path><path d="M273.41,157.64a2.61,2.61,0,1,0-2.6,2.61A2.6,2.6,0,0,0,273.41,157.64Z" style="fill:#54D1EB"></path><circle cx="251.13" cy="203.01" r="2.6" style="fill:#54D1EB"></circle><circle cx="225.84" cy="245.57" r="2.6" style="fill:#54D1EB"></circle><path d="M210.57,240.3s-12.14,54.24-9.64,58.88,10,9.28,16.06,2.86,25.7-36.41,29.26-52.47S219.85,217.1,210.57,240.3Z" style="fill:#263238;stroke:#263238;stroke-miterlimit:10;stroke-width:0.9076476097106934px"></path><path d="M204.5,289.19s-10.71,7.14-18.2,17.13S163.1,334.87,162,335.58s-13.2,7.14-13.2,8.57,14.27,26.76,15.7,27.48,2.14,1.07,2.14-2.5v-6.07c0-1.78,2.14-19.63,2.14-19.63s40.69-31,45-35.68,8.92-13.92,8.92-13.92" style="fill:#263238;stroke:#263238;stroke-miterlimit:10;stroke-width:0.9076476097106934px"></path><path d="M172.91,323.05c-5.49,6.6-10.3,12.15-10.88,12.53-1.07.72-13.2,7.14-13.2,8.57s14.27,26.76,15.7,27.48,2.14,1.07,2.14-2.5v-6.07c0-1.78,2.14-19.63,2.14-19.63s5.21-4,12.1-9.29A24.38,24.38,0,0,1,172.91,323.05Z" style="fill:#fff;stroke:#263238;stroke-miterlimit:10;stroke-width:0.9076476097106934px"></path><path d="M164.17,346.29l-4.75-9.21c-3.88,2.18-10.59,6-10.59,7.07,0,1.42,14.27,26.76,15.7,27.48s2.14,1.07,2.14-2.5v-6.07c0-1.78,2.14-19.63,2.14-19.63l.21-.15C166.6,343.46,164.17,346.29,164.17,346.29Z" style="fill:#fff;stroke:#263238;stroke-miterlimit:10;stroke-width:0.9076476097106934px"></path><polyline points="227.84 249.19 210.98 295.76 166.41 339.52 162.8 358.39 166.41 371.64" style="fill:none;stroke:#54D1EB;stroke-miterlimit:10;stroke-width:0.9076476097106934px"></polyline><path d="M212.38,295.76a2.61,2.61,0,1,0-2.6,2.6A2.59,2.59,0,0,0,212.38,295.76Z" style="fill:#54D1EB"></path><path d="M169,339.52a2.61,2.61,0,1,0-2.61,2.61A2.61,2.61,0,0,0,169,339.52Z" style="fill:#54D1EB"></path><path d="M165.61,358.4A2.61,2.61,0,1,0,163,361,2.6,2.6,0,0,0,165.61,358.4Z" style="fill:#54D1EB"></path><path d="M168.82,370.44a2.61,2.61,0,1,0-2.6,2.61A2.59,2.59,0,0,0,168.82,370.44Z" style="fill:#54D1EB"></path><path d="M220.56,223.17s36.4.71,64.95,11.77,28.19,13.56,27.12,17.85-10.7,7.13-45,8.2-45-1.78-56-16.05" style="fill:#263238;stroke:#263238;stroke-miterlimit:10;stroke-width:0.9076476097106934px"></path><path d="M279.09,255.64,245.9,309.53s-12.14,3.57-11.78,5.71,7.14,22.84,8.57,26.41,5,8.56,6.78,6.07.35-6.43,1.42-11.42,5.36-22.84,5.36-22.84,51-50.32,54.24-54.61,3.21-7.13-.71-10" style="fill:#263238;stroke:#263238;stroke-miterlimit:10;stroke-width:0.9076476097106934px"></path><path d="M256.44,292.41,245.9,309.53s-12.14,3.57-11.78,5.71,7.14,22.84,8.57,26.41,5,8.56,6.78,6.07.35-6.43,1.42-11.42,5.36-22.84,5.36-22.84l11.22-11.1C260.11,300.68,257.42,295.65,256.44,292.41Z" style="fill:#fff;stroke:#263238;stroke-miterlimit:10;stroke-width:0.9076476097106934px"></path><path d="M234.12,315.24c.36,2.14,7.14,22.84,8.57,26.41s5,8.56,6.78,6.07.35-6.43,1.42-11.42,5.36-22.84,5.36-22.84c-3.21-1.08-8.57,3.56-8.57,3.56l-1.78-7.49S233.76,313.1,234.12,315.24Z" style="fill:#fff;stroke:#263238;stroke-miterlimit:10;stroke-width:0.9076476097106934px"></path><polyline points="219.81 234.33 300.92 252.4 252.34 312.62 247.92 332.7 249.47 347.72" style="fill:none;stroke:#54D1EB;stroke-miterlimit:10;stroke-width:0.9076476097106934px"></polyline><path d="M222,233.93a2.61,2.61,0,1,0-2.61,2.6A2.61,2.61,0,0,0,222,233.93Z" style="fill:#54D1EB"></path><path d="M302.32,252.4a2.61,2.61,0,1,0-2.61,2.6A2.61,2.61,0,0,0,302.32,252.4Z" style="fill:#54D1EB"></path><circle cx="253.14" cy="313.43" r="2.6" style="fill:#54D1EB"></circle><circle cx="247.92" cy="332.7" r="2.6" style="fill:#54D1EB"></circle><path d="M252.53,348.16a2.61,2.61,0,1,0-2.6,2.61A2.59,2.59,0,0,0,252.53,348.16Z" style="fill:#54D1EB"></path><path d="M259.69,152.22S211,167.45,207.92,169.88c-2.49,2-16.52,29.11-21.61,39,0,0-8.24,10.31-8.24,13.35s6.4,4.57,6.4,4.57a4.57,4.57,0,0,0,4,1.83c2.43-.3,6.39-9.14,5.78-10.66-.42-1.05-.11-4.42.12-6.41,5.5-7.54,23-29.83,23-29.83s46-8.83,49.34-13.7S269.13,151.61,259.69,152.22Z" style="fill:#fff;stroke:#263238;stroke-miterlimit:10;stroke-width:0.9076476097106934px"></path><polyline points="263.18 160.05 210.98 175.71 191.31 209.84 184.47 226.83" style="fill:none;stroke:#54D1EB;stroke-miterlimit:10;stroke-width:0.9076476097106934px"></polyline><path d="M265.78,160.05a2.61,2.61,0,1,0-2.6,2.61A2.59,2.59,0,0,0,265.78,160.05Z" style="fill:#54D1EB"></path><circle cx="210.38" cy="176.51" r="2.6" style="fill:#54D1EB"></circle><circle cx="191.31" cy="209.84" r="2.6" style="fill:#54D1EB"></circle><circle cx="184.39" cy="226.45" r="2.6" style="fill:#54D1EB"></circle></g><g id="freepik--windows-1--inject-69"><rect x="48.6" y="323.1" width="86.82" height="119.73" style="fill:#ababab;stroke:#263238;stroke-linecap:round;stroke-linejoin:round;stroke-width:0.9076476097106934px"></rect><rect x="48.6" y="323.1" width="86.82" height="25.82" style="fill:gray;stroke:#263238;stroke-linecap:round;stroke-linejoin:round;stroke-width:0.9076476097106934px"></rect><path d="M64.25,337.79a3.85,3.85,0,1,1-3.85-3.85A3.85,3.85,0,0,1,64.25,337.79Z" style="fill:none;stroke:#fff;stroke-linecap:round;stroke-linejoin:round;stroke-width:0.9076476097106934px"></path><line x1="57.41" y1="340.79" x2="53.56" y2="345.06" style="fill:none;stroke:#fff;stroke-linecap:round;stroke-linejoin:round;stroke-width:0.9076476097106934px"></line><line x1="49.05" y1="348.7" x2="134.01" y2="348.7" style="fill:none;stroke:#263238;stroke-linecap:round;stroke-linejoin:round;stroke-width:0.9076476097106934px"></line><rect x="48.6" y="320.47" width="86.82" height="10.5" style="fill:#263238;stroke:#263238;stroke-linecap:round;stroke-linejoin:round;stroke-width:0.9076476097106934px"></rect><path d="M60.5,326a2.82,2.82,0,1,1-2.81-2.81A2.81,2.81,0,0,1,60.5,326Z" style="fill:gray;stroke:#263238;stroke-linecap:round;stroke-linejoin:round;stroke-width:0.9076476097106934px"></path><path d="M69.87,326a2.81,2.81,0,1,1-2.81-2.81A2.81,2.81,0,0,1,69.87,326Z" style="fill:gray;stroke:#263238;stroke-linecap:round;stroke-linejoin:round;stroke-width:0.9076476097106934px"></path><path d="M79.25,326a2.82,2.82,0,1,1-2.81-2.81A2.81,2.81,0,0,1,79.25,326Z" style="fill:gray;stroke:#263238;stroke-linecap:round;stroke-linejoin:round;stroke-width:0.9076476097106934px"></path><line x1="49.05" y1="366.59" x2="134.01" y2="366.59" style="fill:none;stroke:#263238;stroke-linecap:round;stroke-linejoin:round;stroke-width:0.9076476097106934px"></line><polygon points="63.21 358.01 55.12 354.74 55.12 361.29 63.21 358.01" style="fill:#fff"></polygon><line x1="49.05" y1="384.49" x2="134.01" y2="384.49" style="fill:none;stroke:#263238;stroke-linecap:round;stroke-linejoin:round;stroke-width:0.9076476097106934px"></line><polygon points="63.21 375.91 55.12 372.63 55.12 379.19 63.21 375.91" style="fill:#fff"></polygon><line x1="49.05" y1="402.38" x2="134.01" y2="402.38" style="fill:none;stroke:#263238;stroke-linecap:round;stroke-linejoin:round;stroke-width:0.9076476097106934px"></line><polygon points="63.21 393.8 55.12 390.53 55.12 397.08 63.21 393.8" style="fill:#fff"></polygon><line x1="49.05" y1="420.28" x2="134.01" y2="420.28" style="fill:none;stroke:#263238;stroke-linecap:round;stroke-linejoin:round;stroke-width:0.9076476097106934px"></line><polygon points="63.21 411.7 55.12 408.42 55.12 414.98 63.21 411.7" style="fill:#fff"></polygon><line x1="49.05" y1="438.17" x2="134.01" y2="438.17" style="fill:none;stroke:#263238;stroke-linecap:round;stroke-linejoin:round;stroke-width:0.9076476097106934px"></line><polygon points="63.21 429.59 55.12 426.32 55.12 432.87 63.21 429.59" style="fill:#fff"></polygon><line x1="72.16" y1="357.64" x2="121.37" y2="357.64" style="fill:none;stroke:#fff;stroke-linecap:round;stroke-linejoin:round;stroke-width:0.9076476097106934px"></line><line x1="72.16" y1="375.7" x2="121.37" y2="375.7" style="fill:none;stroke:#fff;stroke-linecap:round;stroke-linejoin:round;stroke-width:0.9076476097106934px"></line><line x1="72.16" y1="393.76" x2="121.37" y2="393.76" style="fill:none;stroke:#fff;stroke-linecap:round;stroke-linejoin:round;stroke-width:0.9076476097106934px"></line><line x1="72.16" y1="412.07" x2="121.37" y2="412.07" style="fill:none;stroke:#fff;stroke-linecap:round;stroke-linejoin:round;stroke-width:0.9076476097106934px"></line><line x1="72.16" y1="429.87" x2="121.37" y2="429.87" style="fill:none;stroke:#fff;stroke-linecap:round;stroke-linejoin:round;stroke-width:0.9076476097106934px"></line><rect x="176.83" y="399.47" width="279.56" height="55.37" style="fill:#ababab;stroke:#263238;stroke-linecap:round;stroke-linejoin:round;stroke-width:0.9076476097106934px"></rect><line x1="220.17" y1="400.5" x2="220.17" y2="402.99" style="fill:none;stroke:#fff;stroke-linecap:round;stroke-linejoin:round;stroke-width:0.9076476097106934px"></line><line x1="225.39" y1="400.5" x2="225.39" y2="402.99" style="fill:none;stroke:#fff;stroke-linecap:round;stroke-linejoin:round;stroke-width:0.9076476097106934px"></line><line x1="230.61" y1="400.5" x2="230.61" y2="402.99" style="fill:none;stroke:#fff;stroke-linecap:round;stroke-linejoin:round;stroke-width:0.9076476097106934px"></line><line x1="235.83" y1="400.5" x2="235.83" y2="402.99" style="fill:none;stroke:#fff;stroke-linecap:round;stroke-linejoin:round;stroke-width:0.9076476097106934px"></line><line x1="241.05" y1="400.5" x2="241.05" y2="402.99" style="fill:none;stroke:#fff;stroke-linecap:round;stroke-linejoin:round;stroke-width:0.9076476097106934px"></line><line x1="246.27" y1="400.5" x2="246.27" y2="402.99" style="fill:none;stroke:#fff;stroke-linecap:round;stroke-linejoin:round;stroke-width:0.9076476097106934px"></line><line x1="251.48" y1="400.5" x2="251.48" y2="402.99" style="fill:none;stroke:#fff;stroke-linecap:round;stroke-linejoin:round;stroke-width:0.9076476097106934px"></line><line x1="256.7" y1="400.5" x2="256.7" y2="402.99" style="fill:none;stroke:#fff;stroke-linecap:round;stroke-linejoin:round;stroke-width:0.9076476097106934px"></line><line x1="261.92" y1="400.5" x2="261.92" y2="402.99" style="fill:none;stroke:#fff;stroke-linecap:round;stroke-linejoin:round;stroke-width:0.9076476097106934px"></line><line x1="267.14" y1="400.5" x2="267.14" y2="402.99" style="fill:none;stroke:#fff;stroke-linecap:round;stroke-linejoin:round;stroke-width:0.9076476097106934px"></line><line x1="272.36" y1="400.5" x2="272.36" y2="402.99" style="fill:none;stroke:#fff;stroke-linecap:round;stroke-linejoin:round;stroke-width:0.9076476097106934px"></line><line x1="277.58" y1="400.5" x2="277.58" y2="402.99" style="fill:none;stroke:#fff;stroke-linecap:round;stroke-linejoin:round;stroke-width:0.9076476097106934px"></line><line x1="282.8" y1="400.5" x2="282.8" y2="402.99" style="fill:none;stroke:#fff;stroke-linecap:round;stroke-linejoin:round;stroke-width:0.9076476097106934px"></line><line x1="288.02" y1="400.5" x2="288.02" y2="402.99" style="fill:none;stroke:#fff;stroke-linecap:round;stroke-linejoin:round;stroke-width:0.9076476097106934px"></line><line x1="293.24" y1="400.5" x2="293.24" y2="402.99" style="fill:none;stroke:#fff;stroke-linecap:round;stroke-linejoin:round;stroke-width:0.9076476097106934px"></line><line x1="298.46" y1="400.5" x2="298.46" y2="402.99" style="fill:none;stroke:#fff;stroke-linecap:round;stroke-linejoin:round;stroke-width:0.9076476097106934px"></line><line x1="303.67" y1="400.5" x2="303.67" y2="402.99" style="fill:none;stroke:#fff;stroke-linecap:round;stroke-linejoin:round;stroke-width:0.9076476097106934px"></line><line x1="308.89" y1="400.5" x2="308.89" y2="402.99" style="fill:none;stroke:#fff;stroke-linecap:round;stroke-linejoin:round;stroke-width:0.9076476097106934px"></line><line x1="314.11" y1="400.5" x2="314.11" y2="402.99" style="fill:none;stroke:#fff;stroke-linecap:round;stroke-linejoin:round;stroke-width:0.9076476097106934px"></line><line x1="319.33" y1="400.5" x2="319.33" y2="402.99" style="fill:none;stroke:#fff;stroke-linecap:round;stroke-linejoin:round;stroke-width:0.9076476097106934px"></line><line x1="324.55" y1="400.5" x2="324.55" y2="402.99" style="fill:none;stroke:#fff;stroke-linecap:round;stroke-linejoin:round;stroke-width:0.9076476097106934px"></line><line x1="329.77" y1="400.5" x2="329.77" y2="402.99" style="fill:none;stroke:#fff;stroke-linecap:round;stroke-linejoin:round;stroke-width:0.9076476097106934px"></line><line x1="334.99" y1="400.5" x2="334.99" y2="402.99" style="fill:none;stroke:#fff;stroke-linecap:round;stroke-linejoin:round;stroke-width:0.9076476097106934px"></line><line x1="340.21" y1="400.5" x2="340.21" y2="402.99" style="fill:none;stroke:#fff;stroke-linecap:round;stroke-linejoin:round;stroke-width:0.9076476097106934px"></line><line x1="345.43" y1="400.5" x2="345.43" y2="402.99" style="fill:none;stroke:#fff;stroke-linecap:round;stroke-linejoin:round;stroke-width:0.9076476097106934px"></line><line x1="350.65" y1="400.5" x2="350.65" y2="402.99" style="fill:none;stroke:#fff;stroke-linecap:round;stroke-linejoin:round;stroke-width:0.9076476097106934px"></line><line x1="356.21" y1="400.5" x2="356.21" y2="402.99" style="fill:none;stroke:#fff;stroke-linecap:round;stroke-linejoin:round;stroke-width:0.9076476097106934px"></line><line x1="361.77" y1="400.5" x2="361.77" y2="402.99" style="fill:none;stroke:#fff;stroke-linecap:round;stroke-linejoin:round;stroke-width:0.9076476097106934px"></line><line x1="367.33" y1="400.5" x2="367.33" y2="402.99" style="fill:none;stroke:#fff;stroke-linecap:round;stroke-linejoin:round;stroke-width:0.9076476097106934px"></line><line x1="372.89" y1="400.5" x2="372.89" y2="402.99" style="fill:none;stroke:#fff;stroke-linecap:round;stroke-linejoin:round;stroke-width:0.9076476097106934px"></line><line x1="378.45" y1="400.5" x2="378.45" y2="402.99" style="fill:none;stroke:#fff;stroke-linecap:round;stroke-linejoin:round;stroke-width:0.9076476097106934px"></line><line x1="384.01" y1="400.5" x2="384.01" y2="402.99" style="fill:none;stroke:#fff;stroke-linecap:round;stroke-linejoin:round;stroke-width:0.9076476097106934px"></line><line x1="389.57" y1="400.5" x2="389.57" y2="402.99" style="fill:none;stroke:#fff;stroke-linecap:round;stroke-linejoin:round;stroke-width:0.9076476097106934px"></line><line x1="395.13" y1="400.5" x2="395.13" y2="402.99" style="fill:none;stroke:#fff;stroke-linecap:round;stroke-linejoin:round;stroke-width:0.9076476097106934px"></line><line x1="400.7" y1="400.5" x2="400.7" y2="402.99" style="fill:none;stroke:#fff;stroke-linecap:round;stroke-linejoin:round;stroke-width:0.9076476097106934px"></line><line x1="406.26" y1="400.5" x2="406.26" y2="402.99" style="fill:none;stroke:#fff;stroke-linecap:round;stroke-linejoin:round;stroke-width:0.9076476097106934px"></line><line x1="411.82" y1="400.5" x2="411.82" y2="402.99" style="fill:none;stroke:#fff;stroke-linecap:round;stroke-linejoin:round;stroke-width:0.9076476097106934px"></line><line x1="417.38" y1="400.5" x2="417.38" y2="402.99" style="fill:none;stroke:#fff;stroke-linecap:round;stroke-linejoin:round;stroke-width:0.9076476097106934px"></line><line x1="422.94" y1="400.5" x2="422.94" y2="402.99" style="fill:none;stroke:#fff;stroke-linecap:round;stroke-linejoin:round;stroke-width:0.9076476097106934px"></line><line x1="428.5" y1="400.5" x2="428.5" y2="402.99" style="fill:none;stroke:#fff;stroke-linecap:round;stroke-linejoin:round;stroke-width:0.9076476097106934px"></line><line x1="434.06" y1="400.5" x2="434.06" y2="402.99" style="fill:none;stroke:#fff;stroke-linecap:round;stroke-linejoin:round;stroke-width:0.9076476097106934px"></line><line x1="439.62" y1="400.5" x2="439.62" y2="402.99" style="fill:none;stroke:#fff;stroke-linecap:round;stroke-linejoin:round;stroke-width:0.9076476097106934px"></line><line x1="445.19" y1="400.5" x2="445.19" y2="402.99" style="fill:none;stroke:#fff;stroke-linecap:round;stroke-linejoin:round;stroke-width:0.9076476097106934px"></line><line x1="450.75" y1="400.5" x2="450.75" y2="402.99" style="fill:none;stroke:#fff;stroke-linecap:round;stroke-linejoin:round;stroke-width:0.9076476097106934px"></line><line x1="461.87" y1="400.5" x2="461.87" y2="402.99" style="fill:none;stroke:#fff;stroke-linecap:round;stroke-linejoin:round;stroke-width:0.9076476097106934px"></line><line x1="406.85" y1="400.5" x2="406.85" y2="402.99" style="fill:none;stroke:#fff;stroke-linecap:round;stroke-linejoin:round;stroke-width:0.9076476097106934px"></line><line x1="412.41" y1="400.5" x2="412.41" y2="402.99" style="fill:none;stroke:#fff;stroke-linecap:round;stroke-linejoin:round;stroke-width:0.9076476097106934px"></line><line x1="417.97" y1="400.5" x2="417.97" y2="402.99" style="fill:none;stroke:#fff;stroke-linecap:round;stroke-linejoin:round;stroke-width:0.9076476097106934px"></line><line x1="423.53" y1="400.5" x2="423.53" y2="402.99" style="fill:none;stroke:#fff;stroke-linecap:round;stroke-linejoin:round;stroke-width:0.9076476097106934px"></line><line x1="429.09" y1="400.5" x2="429.09" y2="402.99" style="fill:none;stroke:#fff;stroke-linecap:round;stroke-linejoin:round;stroke-width:0.9076476097106934px"></line><line x1="434.66" y1="400.5" x2="434.66" y2="402.99" style="fill:none;stroke:#fff;stroke-linecap:round;stroke-linejoin:round;stroke-width:0.9076476097106934px"></line><line x1="440.22" y1="400.5" x2="440.22" y2="402.99" style="fill:none;stroke:#fff;stroke-linecap:round;stroke-linejoin:round;stroke-width:0.9076476097106934px"></line><line x1="445.78" y1="400.5" x2="445.78" y2="402.99" style="fill:none;stroke:#fff;stroke-linecap:round;stroke-linejoin:round;stroke-width:0.9076476097106934px"></line><line x1="451.34" y1="400.5" x2="451.34" y2="402.99" style="fill:none;stroke:#fff;stroke-linecap:round;stroke-linejoin:round;stroke-width:0.9076476097106934px"></line><rect x="214.82" y="404.8" width="241.63" height="5.05" style="fill:#54D1EB"></rect><rect x="249.83" y="415.17" width="146.06" height="5.05" style="fill:#263238"></rect><rect x="409.46" y="415.17" width="10.29" height="5.05" style="fill:#263238"></rect><rect x="214.82" y="425.67" width="70.44" height="5.05" style="fill:#54D1EB"></rect><rect x="367.8" y="425.67" width="70.44" height="5.05" style="fill:#54D1EB"></rect><rect x="176.83" y="404.8" width="279.56" height="50.04" style="fill:none;stroke:#263238;stroke-linecap:round;stroke-linejoin:round;stroke-width:0.9076476097106934px"></rect><rect x="176.83" y="404.8" width="37.99" height="50.04" style="fill:none;stroke:#263238;stroke-linecap:round;stroke-linejoin:round;stroke-width:0.9076476097106934px"></rect><line x1="176.8" y1="409.85" x2="456.45" y2="409.85" style="fill:none;stroke:#263238;stroke-linecap:round;stroke-linejoin:round;stroke-width:0.9076476097106934px"></line><line x1="176.8" y1="415.17" x2="456.45" y2="415.17" style="fill:none;stroke:#263238;stroke-linecap:round;stroke-linejoin:round;stroke-width:0.9076476097106934px"></line><line x1="176.8" y1="420.48" x2="456.45" y2="420.48" style="fill:none;stroke:#263238;stroke-linecap:round;stroke-linejoin:round;stroke-width:0.9076476097106934px"></line><line x1="176.8" y1="425.8" x2="456.45" y2="425.8" style="fill:none;stroke:#263238;stroke-linecap:round;stroke-linejoin:round;stroke-width:0.9076476097106934px"></line><line x1="176.8" y1="431.12" x2="456.45" y2="431.12" style="fill:none;stroke:#263238;stroke-linecap:round;stroke-linejoin:round;stroke-width:0.9076476097106934px"></line><polygon points="238.75 404.53 237.37 405.56 236.09 404.53 236.09 400.55 238.75 400.55 238.75 404.53" style="fill:#fff;stroke:#263238;stroke-linecap:round;stroke-linejoin:round;stroke-width:0.9076476097106934px"></polygon><polygon points="331.25 404.53 329.87 405.56 328.59 404.53 328.59 400.55 331.25 400.55 331.25 404.53" style="fill:#fff;stroke:#263238;stroke-linecap:round;stroke-linejoin:round;stroke-width:0.9076476097106934px"></polygon><polygon points="423.75 404.53 422.37 405.56 421.09 404.53 421.09 400.55 423.75 400.55 423.75 404.53" style="fill:#fff;stroke:#263238;stroke-linecap:round;stroke-linejoin:round;stroke-width:0.9076476097106934px"></polygon><line x1="237.37" y1="405.56" x2="237.37" y2="431.47" style="fill:none;stroke:#263238;stroke-linecap:round;stroke-linejoin:round;stroke-width:0.9076476097106934px"></line><rect x="202.47" y="406.06" width="9.98" height="2.27" style="fill:#4a4a4a"></rect><rect x="202.47" y="411.27" width="9.98" height="2.27" style="fill:#4a4a4a"></rect><rect x="202.47" y="416.49" width="9.98" height="2.27" style="fill:#4a4a4a"></rect><rect x="202.47" y="421.71" width="9.98" height="2.27" style="fill:#4a4a4a"></rect><rect x="202.47" y="426.93" width="9.98" height="2.27" style="fill:#4a4a4a"></rect><rect x="194.53" y="406.06" width="6.13" height="2.27" style="fill:#4a4a4a"></rect><rect x="194.53" y="411.27" width="6.13" height="2.27" style="fill:#4a4a4a"></rect><rect x="194.53" y="416.49" width="6.13" height="2.27" style="fill:#4a4a4a"></rect><rect x="194.53" y="421.71" width="6.13" height="2.27" style="fill:#4a4a4a"></rect><rect x="194.53" y="426.93" width="6.13" height="2.27" style="fill:#4a4a4a"></rect><rect x="344.48" y="180.35" width="98.04" height="128.68" style="fill:#ababab;stroke:#263238;stroke-linecap:round;stroke-linejoin:round;stroke-width:0.9076476097106934px"></rect><rect x="344.48" y="177.73" width="98.04" height="10.5" style="fill:#263238;stroke:#263238;stroke-linecap:round;stroke-linejoin:round;stroke-width:0.9076476097106934px"></rect><rect x="371.84" y="197.23" width="40.04" height="36.89" rx="3.15" style="fill:none;stroke:#263238;stroke-linecap:round;stroke-linejoin:round;stroke-width:0.9076476097106934px"></rect><circle cx="404" cy="216.35" r="4.27" style="fill:#54D1EB;stroke:#263238;stroke-linecap:round;stroke-linejoin:round;stroke-width:0.9076476097106934px"></circle><line x1="424.35" y1="249.59" x2="365.87" y2="249.59" style="fill:none;stroke:#263238;stroke-linecap:round;stroke-linejoin:round;stroke-width:0.9076476097106934px"></line><line x1="424.35" y1="263.09" x2="365.87" y2="263.09" style="fill:none;stroke:#263238;stroke-linecap:round;stroke-linejoin:round;stroke-width:0.9076476097106934px"></line><line x1="424.35" y1="276.58" x2="365.87" y2="276.58" style="fill:none;stroke:#263238;stroke-linecap:round;stroke-linejoin:round;stroke-width:0.9076476097106934px"></line><line x1="424.35" y1="290.08" x2="365.87" y2="290.08" style="fill:none;stroke:#263238;stroke-linecap:round;stroke-linejoin:round;stroke-width:0.9076476097106934px"></line><circle cx="404.11" cy="249.59" r="4.27" style="fill:#54D1EB;stroke:#263238;stroke-linecap:round;stroke-linejoin:round;stroke-width:0.9076476097106934px"></circle><path d="M387.68,275.68a4.27,4.27,0,1,1-4.27-4.27A4.28,4.28,0,0,1,387.68,275.68Z" style="fill:#54D1EB;stroke:#263238;stroke-linecap:round;stroke-linejoin:round;stroke-width:0.9076476097106934px"></path><circle cx="412.2" cy="289.63" r="4.27" style="fill:#54D1EB;stroke:#263238;stroke-linecap:round;stroke-linejoin:round;stroke-width:0.9076476097106934px"></circle><circle cx="404.11" cy="262.64" r="4.27" style="fill:#54D1EB;stroke:#263238;stroke-linecap:round;stroke-linejoin:round;stroke-width:0.9076476097106934px"></circle><path d="M356.38,183.21a2.82,2.82,0,1,1-2.82-2.81A2.81,2.81,0,0,1,356.38,183.21Z" style="fill:gray;stroke:#263238;stroke-linecap:round;stroke-linejoin:round;stroke-width:0.9076476097106934px"></path><path d="M365.75,183.21a2.81,2.81,0,1,1-2.81-2.81A2.81,2.81,0,0,1,365.75,183.21Z" style="fill:gray;stroke:#263238;stroke-linecap:round;stroke-linejoin:round;stroke-width:0.9076476097106934px"></path><path d="M375.13,183.21a2.82,2.82,0,1,1-2.81-2.81A2.81,2.81,0,0,1,375.13,183.21Z" style="fill:gray;stroke:#263238;stroke-linecap:round;stroke-linejoin:round;stroke-width:0.9076476097106934px"></path></g></svg>